G04 #@! TF.GenerationSoftware,KiCad,Pcbnew,5.1.0-rc1-unknown-9a8afdf~76~ubuntu18.04.1*
G04 #@! TF.CreationDate,2019-02-21T15:29:12+02:00
G04 #@! TF.ProjectId,MOD-LoRa_RevB,4d4f442d-4c6f-4526-915f-526576422e6b,rev?*
G04 #@! TF.SameCoordinates,Original*
G04 #@! TF.FileFunction,Copper,L1,Top*
G04 #@! TF.FilePolarity,Positive*
%FSLAX46Y46*%
G04 Gerber Fmt 4.6, Leading zero omitted, Abs format (unit mm)*
G04 Created by KiCad (PCBNEW 5.1.0-rc1-unknown-9a8afdf~76~ubuntu18.04.1) date 2019-02-21 15:29:12*
%MOMM*%
%LPD*%
G04 APERTURE LIST*
%ADD10C,1.000000*%
%ADD11C,1.200000*%
%ADD12R,2.400000X2.400000*%
%ADD13R,0.325000X0.750000*%
%ADD14R,0.750000X0.325000*%
%ADD15O,2.500000X1.000000*%
%ADD16O,0.800000X20.800000*%
%ADD17O,16.800000X0.800000*%
%ADD18C,0.600000*%
%ADD19R,1.050000X2.200000*%
%ADD20R,1.050000X1.050000*%
%ADD21R,1.016000X1.016000*%
%ADD22R,0.550000X0.500000*%
%ADD23C,0.550000*%
%ADD24R,0.750000X0.850000*%
%ADD25R,0.500000X0.550000*%
%ADD26R,1.524000X5.080000*%
%ADD27C,0.800000*%
%ADD28C,0.355600*%
%ADD29C,0.508000*%
%ADD30C,0.250000*%
%ADD31C,0.254000*%
G04 APERTURE END LIST*
D10*
X121690000Y-100460000D03*
D11*
X129248000Y-109779141D03*
X129248000Y-107379141D03*
X126848000Y-109779141D03*
X126848000Y-107379141D03*
D12*
X129248000Y-109779141D03*
X129248000Y-107379141D03*
X126848000Y-109779141D03*
X126848000Y-107379141D03*
D13*
X126098000Y-105579141D03*
X126748000Y-105579141D03*
X127398000Y-105579141D03*
X128048000Y-105579141D03*
X128698000Y-105579141D03*
X129348000Y-105579141D03*
X129998000Y-105579141D03*
D14*
X131048000Y-106629141D03*
X131048000Y-107279141D03*
X131048000Y-107929141D03*
X131048000Y-108579141D03*
X131048000Y-109229141D03*
X131048000Y-109879141D03*
X131048000Y-110529141D03*
D13*
X129998000Y-111579141D03*
X129348000Y-111579141D03*
X128698000Y-111579141D03*
X128048000Y-111579141D03*
X127398000Y-111579141D03*
X126748000Y-111579141D03*
X126098000Y-111579141D03*
D14*
X125048000Y-110529141D03*
X125048000Y-109879141D03*
X125048000Y-109229141D03*
X125048000Y-108579141D03*
X125048000Y-107929141D03*
X125048000Y-107279141D03*
X125048000Y-106629141D03*
D15*
X127659999Y-114409141D03*
X127659999Y-94409141D03*
D16*
X135659999Y-104409141D03*
X119659999Y-104409141D03*
D17*
X127659999Y-114409141D03*
X127659999Y-94409141D03*
D18*
X131250000Y-95620000D03*
D19*
X130385000Y-91192741D03*
X133385000Y-91192741D03*
D20*
X131885000Y-92692741D03*
D21*
X125211000Y-101180000D03*
X126989000Y-101180000D03*
D22*
X130390000Y-96609000D03*
X130390000Y-97625000D03*
D23*
X121375000Y-111804141D03*
X121375000Y-109754141D03*
X123025000Y-109754141D03*
X123025000Y-111804141D03*
D24*
X121675000Y-111454141D03*
X121675000Y-110104141D03*
X122725000Y-110104141D03*
X122725000Y-111454141D03*
D22*
X130390000Y-98692000D03*
X130390000Y-99708000D03*
D25*
X132300000Y-103900000D03*
X133316000Y-103900000D03*
X129392000Y-102750000D03*
X130408000Y-102750000D03*
X126234141Y-102759000D03*
X125218141Y-102759000D03*
X129208000Y-103930000D03*
X128192000Y-103930000D03*
X130392000Y-103900000D03*
X131408000Y-103900000D03*
X132358000Y-96600000D03*
X131342000Y-96600000D03*
D22*
X129250000Y-97628000D03*
X129250000Y-96612000D03*
D25*
X132208000Y-98200000D03*
X131192000Y-98200000D03*
D22*
X130390000Y-101748000D03*
X130390000Y-100732000D03*
D25*
X126234141Y-103902000D03*
X125218141Y-103902000D03*
X131012800Y-112943541D03*
X129996800Y-112943541D03*
X121310000Y-107330140D03*
X122326000Y-107330140D03*
X121310000Y-104790141D03*
X122326000Y-104790141D03*
X121310000Y-106060141D03*
X122326000Y-106060141D03*
X121310000Y-108579141D03*
X122326000Y-108579141D03*
X121767000Y-113029141D03*
X122783000Y-113029141D03*
D26*
X122522605Y-118420000D03*
X125062605Y-118420000D03*
X127602605Y-118420000D03*
X130142605Y-118420000D03*
X132682605Y-118420000D03*
D27*
X123368848Y-109727717D03*
X132619141Y-99182000D03*
X132619141Y-100182000D03*
X132619141Y-101182000D03*
X127348000Y-96189141D03*
X126348000Y-96189141D03*
X125348000Y-96189141D03*
X124348000Y-96189141D03*
X123348000Y-96189141D03*
X122348000Y-96189141D03*
X121348000Y-96189141D03*
X125007200Y-99683540D03*
X126007200Y-99683540D03*
X121356400Y-98086341D03*
X122356400Y-98086342D03*
X127007200Y-99683541D03*
X123356400Y-98086341D03*
X123304401Y-103393141D03*
X122304400Y-103393141D03*
X121304400Y-103393140D03*
X133502000Y-112695141D03*
X133502000Y-111695141D03*
X133502000Y-110695141D03*
X129020000Y-101750000D03*
X132480000Y-105640000D03*
X133370000Y-104750000D03*
X134580000Y-104750000D03*
X133600000Y-96200000D03*
X120140000Y-108650000D03*
X120140000Y-109920000D03*
X120140000Y-111190000D03*
X120140000Y-112460000D03*
X120140000Y-113730000D03*
X131012800Y-111584641D03*
X122961000Y-106060141D03*
X120000000Y-116000000D03*
X127440000Y-103930002D03*
X128010000Y-101180000D03*
X131880000Y-93370000D03*
X134441800Y-106110941D03*
X134479900Y-107203141D03*
X124041288Y-111255229D03*
X128905000Y-115443000D03*
X134479900Y-109870142D03*
X134302502Y-115570000D03*
X134454500Y-108587441D03*
X131318000Y-115409141D03*
X125069200Y-111957350D03*
X123888500Y-115409141D03*
X125069201Y-113409141D03*
X124077212Y-113084140D03*
D28*
X127397999Y-106829141D02*
X126848000Y-107379141D01*
X127398000Y-105579140D02*
X127397999Y-106829141D01*
X129348001Y-107279141D02*
X129248000Y-107379142D01*
X129348000Y-105579141D02*
X129348001Y-107279141D01*
X123025000Y-109754141D02*
X123342424Y-109754141D01*
X123342424Y-109754141D02*
X123368848Y-109727717D01*
X129998001Y-110529141D02*
X129248000Y-109779140D01*
X131048000Y-110529141D02*
X129998001Y-110529141D01*
X126098001Y-106629141D02*
X126848000Y-107379141D01*
X131778600Y-110529141D02*
X131939900Y-110690441D01*
X131048000Y-110529141D02*
X131778600Y-110529141D01*
X131939900Y-110690441D02*
X131939900Y-112702241D01*
X131698600Y-112943541D02*
X131012800Y-112943542D01*
X131939900Y-112702241D02*
X131698600Y-112943541D01*
X121310000Y-108579141D02*
X121309999Y-107330141D01*
X121309999Y-107330141D02*
X121310000Y-106060141D01*
X121310000Y-106060141D02*
X121310000Y-104790141D01*
X120041000Y-104790141D02*
X119660001Y-104409141D01*
X121310000Y-104790141D02*
X120041000Y-104790141D01*
D29*
X131939900Y-112702241D02*
X132422500Y-112702241D01*
X132422500Y-112702241D02*
X132435200Y-112689541D01*
D30*
X121310000Y-103398741D02*
X121304400Y-103393140D01*
X121310000Y-104790141D02*
X121310000Y-103398741D01*
X123304401Y-103393141D02*
X122304400Y-103393141D01*
X122304400Y-103393141D02*
X121304400Y-103393140D01*
X132429600Y-112695141D02*
X133502000Y-112695141D01*
X132422500Y-112702241D02*
X132429600Y-112695141D01*
D28*
X129348000Y-104070000D02*
X129208000Y-103930000D01*
X129348000Y-105579141D02*
X129348000Y-104070000D01*
D29*
X128232000Y-99700000D02*
X125610000Y-99700000D01*
X125211000Y-100099000D02*
X125211000Y-101180000D01*
X125610000Y-99700000D02*
X125211000Y-100099000D01*
X134758000Y-101967000D02*
X134758000Y-102750000D01*
X134758000Y-99135000D02*
X134758000Y-101967000D01*
X132488000Y-96840000D02*
X132488000Y-96865000D01*
X132488000Y-96865000D02*
X134758000Y-99135000D01*
X128232000Y-96874826D02*
X128232000Y-99700000D01*
X128230000Y-96872826D02*
X128232000Y-96874826D01*
X128232000Y-99700000D02*
X128232000Y-100026202D01*
X130385000Y-92800741D02*
X130380000Y-92805741D01*
X130385000Y-91192741D02*
X130385000Y-92800741D01*
X130380000Y-92805741D02*
X130380000Y-93580000D01*
X133385000Y-92800741D02*
X133380000Y-92805741D01*
X133385000Y-91192741D02*
X133385000Y-92800741D01*
X133385000Y-93128922D02*
X133385000Y-92800741D01*
X132289921Y-94224001D02*
X133385000Y-93128922D01*
X131470079Y-94224001D02*
X132289921Y-94224001D01*
X130380000Y-92805741D02*
X130380000Y-93133922D01*
X130380000Y-93133922D02*
X131470079Y-94224001D01*
X133200000Y-96600000D02*
X133600000Y-96200000D01*
X132358000Y-96600000D02*
X133200000Y-96600000D01*
X128031685Y-96872826D02*
X128230000Y-96872826D01*
X127348000Y-96189141D02*
X128031685Y-96872826D01*
X133316000Y-104696000D02*
X133370000Y-104750000D01*
X133316000Y-103900000D02*
X133316000Y-104696000D01*
D30*
X121675000Y-112937141D02*
X121767000Y-113029141D01*
X121375000Y-111804141D02*
X121375000Y-111754141D01*
D28*
X121675000Y-111454141D02*
X121675000Y-112937141D01*
X123025000Y-111415234D02*
X123025000Y-111804142D01*
X123025000Y-111171540D02*
X123025000Y-111415234D01*
X124317400Y-109879141D02*
X123025000Y-111171540D01*
X125048000Y-109879142D02*
X124317400Y-109879141D01*
X122725000Y-112971141D02*
X122783001Y-113029141D01*
X122725000Y-111454141D02*
X122725000Y-112971141D01*
X121675000Y-109674099D02*
X121675000Y-110104141D01*
X122326000Y-108672541D02*
X122326000Y-108579141D01*
X121675000Y-109323541D02*
X122326000Y-108672541D01*
X121675000Y-110104141D02*
X121675000Y-109323541D01*
X125048000Y-109229141D02*
X124074248Y-109229141D01*
X122931600Y-108579141D02*
X122326000Y-108579141D01*
X123424248Y-108579141D02*
X122931600Y-108579141D01*
X124074248Y-109229141D02*
X123424248Y-108579141D01*
X129996800Y-111580342D02*
X129998000Y-111579142D01*
X129996800Y-112943542D02*
X129996800Y-111580342D01*
X129998000Y-111579142D02*
X131007300Y-111579142D01*
X131007300Y-111579142D02*
X131012800Y-111584641D01*
X122326000Y-106060141D02*
X122961000Y-106060141D01*
X123360999Y-106841140D02*
X123360999Y-106460140D01*
X125048000Y-107929141D02*
X124449000Y-107929141D01*
X123360999Y-106460140D02*
X122961000Y-106060141D01*
X124449000Y-107929141D02*
X123360999Y-106841140D01*
D29*
X122522605Y-115443000D02*
X122522605Y-118420000D01*
X120000000Y-116000000D02*
X120557000Y-115443000D01*
X120557000Y-115443000D02*
X122522605Y-115443000D01*
X127440002Y-103930000D02*
X127440000Y-103930002D01*
X128192000Y-103930000D02*
X127440002Y-103930000D01*
D28*
X128192000Y-104206790D02*
X128192000Y-103930000D01*
X128698000Y-105579141D02*
X128698000Y-104712790D01*
X128698000Y-104712790D02*
X128192000Y-104206790D01*
D29*
X128010000Y-101180000D02*
X126989000Y-101180000D01*
D28*
X124584750Y-107279141D02*
X125048000Y-107279141D01*
X123977001Y-106671392D02*
X124584750Y-107279141D01*
X123977000Y-105835542D02*
X123977001Y-106671392D01*
X122931600Y-104790141D02*
X123977000Y-105835542D01*
X122326000Y-104790141D02*
X122931600Y-104790141D01*
X122961000Y-107330141D02*
X122931600Y-107330141D01*
X122931600Y-107330141D02*
X122326000Y-107330141D01*
X125048000Y-108579141D02*
X124210000Y-108579141D01*
X124210000Y-108579141D02*
X122961000Y-107330141D01*
X131048000Y-105512000D02*
X131048000Y-106629141D01*
D29*
X131408000Y-103900000D02*
X132300000Y-103900000D01*
X131408000Y-105152000D02*
X131048000Y-105512000D01*
X131408000Y-103900000D02*
X131408000Y-105152000D01*
X130353766Y-99744234D02*
X130353766Y-100695766D01*
X130390000Y-100708000D02*
X130353766Y-100744234D01*
X130382000Y-99700000D02*
X130390000Y-99692000D01*
X130387000Y-98628000D02*
X130390000Y-98625000D01*
X130400000Y-97599000D02*
X130390000Y-97609000D01*
X130387000Y-97612000D02*
X130390000Y-97609000D01*
X130399000Y-97600000D02*
X130390000Y-97609000D01*
X129253000Y-97609000D02*
X129250000Y-97612000D01*
X130434000Y-98200000D02*
X130390000Y-98156000D01*
X130390000Y-98156000D02*
X130390000Y-97990000D01*
X131192000Y-98200000D02*
X130434000Y-98200000D01*
X130390000Y-97625000D02*
X130390000Y-97990000D01*
X130390000Y-97990000D02*
X130390000Y-98692000D01*
X129250000Y-97628000D02*
X130387000Y-97628000D01*
D30*
X131880000Y-92697741D02*
X131885000Y-92692741D01*
X131880000Y-93370000D02*
X131880000Y-92697741D01*
D29*
X131248000Y-95622000D02*
X131250000Y-95620000D01*
X131333000Y-96609000D02*
X131342000Y-96600000D01*
X130390000Y-96609000D02*
X131333000Y-96609000D01*
X131250000Y-96508000D02*
X131342000Y-96600000D01*
X131250000Y-95620000D02*
X131250000Y-96508000D01*
X130390000Y-95851000D02*
X130390000Y-96609000D01*
X130621000Y-95620000D02*
X130390000Y-95851000D01*
X131250000Y-95620000D02*
X130621000Y-95620000D01*
X130390000Y-96609000D02*
X129253000Y-96609000D01*
X130353766Y-101695766D02*
X130390000Y-101732000D01*
D28*
X129998000Y-104612000D02*
X129998000Y-105579141D01*
D29*
X130390000Y-104220000D02*
X129998000Y-104612000D01*
X130390000Y-102732000D02*
X130408000Y-102750000D01*
X130390000Y-101748000D02*
X130390000Y-102732000D01*
X130408000Y-104202000D02*
X130390000Y-104220000D01*
X130408000Y-102750000D02*
X130408000Y-104202000D01*
D28*
X131048000Y-107929141D02*
X132602754Y-107929141D01*
X134420954Y-106110941D02*
X134441800Y-106110941D01*
X132602754Y-107929141D02*
X134420954Y-106110941D01*
X131048000Y-108579141D02*
X133103900Y-108579141D01*
X133103900Y-108579141D02*
X134479900Y-107203141D01*
D30*
X125047999Y-110529141D02*
X124767376Y-110529141D01*
X124767376Y-110529141D02*
X124041288Y-111255229D01*
D29*
X127602605Y-115665895D02*
X127602605Y-118420000D01*
X128905000Y-115443000D02*
X127825500Y-115443000D01*
X127825500Y-115443000D02*
X127602605Y-115665895D01*
D28*
X131048001Y-109879141D02*
X134470900Y-109879142D01*
X134470900Y-109879142D02*
X134479900Y-109870142D01*
D29*
X132778500Y-115570000D02*
X134302502Y-115570000D01*
X132682605Y-118420000D02*
X132682605Y-115665895D01*
X132682605Y-115665895D02*
X132778500Y-115570000D01*
D28*
X131048000Y-109229141D02*
X133812800Y-109229141D01*
X133812800Y-109229141D02*
X134454500Y-108587441D01*
D29*
X130291746Y-115409141D02*
X131318000Y-115409141D01*
X130142605Y-118420000D02*
X130142605Y-115558282D01*
X130142605Y-115558282D02*
X130291746Y-115409141D01*
D30*
X126098000Y-111579142D02*
X125447409Y-111579141D01*
X125447409Y-111579141D02*
X125069200Y-111957350D01*
D29*
X125031500Y-118388895D02*
X125062605Y-118420000D01*
X123888500Y-115409141D02*
X124870641Y-115409141D01*
X125031500Y-115570000D02*
X125031500Y-118388895D01*
X124870641Y-115409141D02*
X125031500Y-115570000D01*
D30*
X126686400Y-113409141D02*
X125069201Y-113409141D01*
X126999600Y-113095941D02*
X126686400Y-113409141D01*
X126999600Y-112429338D02*
X126999600Y-113095941D01*
X127397999Y-111579141D02*
X127397999Y-112030939D01*
X127397999Y-112030939D02*
X126999600Y-112429338D01*
X126346391Y-112682350D02*
X124479003Y-112682350D01*
X126748000Y-111579142D02*
X126748000Y-112044530D01*
X124479003Y-112682350D02*
X124077212Y-113084140D01*
X126346392Y-112446138D02*
X126346391Y-112682350D01*
X126748000Y-112044530D02*
X126346392Y-112446138D01*
D28*
X128048000Y-104848541D02*
X127967261Y-104767802D01*
X126998618Y-104767802D02*
X126895199Y-104664383D01*
X127967261Y-104767802D02*
X126998618Y-104767802D01*
X128048000Y-105579141D02*
X128048000Y-104848541D01*
D29*
X126234141Y-104003325D02*
X126895199Y-104664383D01*
X126234141Y-103902000D02*
X126234141Y-104003325D01*
X126234141Y-102759000D02*
X126234141Y-103902000D01*
X126243141Y-102750000D02*
X126234141Y-102759000D01*
X129392000Y-102750000D02*
X126243141Y-102750000D01*
D31*
G36*
X130213000Y-92960000D02*
G01*
X130215363Y-92984386D01*
X130222516Y-93008233D01*
X130234183Y-93030226D01*
X130249916Y-93049521D01*
X130269112Y-93065375D01*
X130291032Y-93077180D01*
X130314833Y-93084481D01*
X130339602Y-93086999D01*
X130721928Y-93088198D01*
X130721928Y-93217741D01*
X130734188Y-93342223D01*
X130770498Y-93461921D01*
X130829463Y-93572235D01*
X130876303Y-93629310D01*
X130884774Y-93671898D01*
X130962795Y-93860256D01*
X131076063Y-94029774D01*
X131220226Y-94173937D01*
X131389744Y-94287205D01*
X131578102Y-94365226D01*
X131778061Y-94405000D01*
X131981939Y-94405000D01*
X132181898Y-94365226D01*
X132370256Y-94287205D01*
X132539774Y-94173937D01*
X132683937Y-94029774D01*
X132797205Y-93860256D01*
X132875226Y-93671898D01*
X132880498Y-93645393D01*
X132940537Y-93572235D01*
X132999502Y-93461921D01*
X133035812Y-93342223D01*
X133048072Y-93217741D01*
X133048072Y-93095490D01*
X133529602Y-93096999D01*
X133554414Y-93094631D01*
X133578260Y-93087473D01*
X133600250Y-93075801D01*
X133619541Y-93060063D01*
X133635391Y-93040864D01*
X133647191Y-93018942D01*
X133654487Y-92995138D01*
X133656999Y-92970369D01*
X133665169Y-90160000D01*
X136340001Y-90160000D01*
X136340000Y-116193923D01*
X135133960Y-116188586D01*
X135219707Y-116060256D01*
X135297728Y-115871898D01*
X135337502Y-115671939D01*
X135337502Y-115468061D01*
X135297728Y-115268102D01*
X135219707Y-115079744D01*
X135106439Y-114910226D01*
X134962276Y-114766063D01*
X134792758Y-114652795D01*
X134604400Y-114574774D01*
X134404441Y-114535000D01*
X134200563Y-114535000D01*
X134000604Y-114574774D01*
X133812246Y-114652795D01*
X133770034Y-114681000D01*
X132822159Y-114681000D01*
X132778499Y-114676700D01*
X132734839Y-114681000D01*
X132734833Y-114681000D01*
X132604226Y-114693864D01*
X132436649Y-114744697D01*
X132282209Y-114827247D01*
X132212306Y-114884615D01*
X132121937Y-114749367D01*
X131977774Y-114605204D01*
X131808256Y-114491936D01*
X131619898Y-114413915D01*
X131419939Y-114374141D01*
X131216061Y-114374141D01*
X131016102Y-114413915D01*
X130827744Y-114491936D01*
X130785532Y-114520141D01*
X130335405Y-114520141D01*
X130291745Y-114515841D01*
X130248085Y-114520141D01*
X130248079Y-114520141D01*
X130135819Y-114531198D01*
X130117471Y-114533005D01*
X130066638Y-114548425D01*
X129949895Y-114583838D01*
X129795455Y-114666388D01*
X129683763Y-114758052D01*
X129564774Y-114639063D01*
X129395256Y-114525795D01*
X129206898Y-114447774D01*
X129006939Y-114408000D01*
X128803061Y-114408000D01*
X128603102Y-114447774D01*
X128414744Y-114525795D01*
X128372532Y-114554000D01*
X127869159Y-114554000D01*
X127825499Y-114549700D01*
X127781839Y-114554000D01*
X127781833Y-114554000D01*
X127684424Y-114563594D01*
X127651224Y-114566864D01*
X127573220Y-114590526D01*
X127483649Y-114617697D01*
X127329209Y-114700247D01*
X127193841Y-114811341D01*
X127166001Y-114845264D01*
X127004869Y-115006396D01*
X126970946Y-115034236D01*
X126859852Y-115169605D01*
X126820116Y-115243946D01*
X126716123Y-115254188D01*
X126596425Y-115290498D01*
X126486111Y-115349463D01*
X126389420Y-115428815D01*
X126332605Y-115498044D01*
X126275790Y-115428815D01*
X126179099Y-115349463D01*
X126068785Y-115290498D01*
X125949087Y-115254188D01*
X125862103Y-115245621D01*
X125856803Y-115228149D01*
X125774253Y-115073709D01*
X125663159Y-114938341D01*
X125629237Y-114910502D01*
X125530140Y-114811405D01*
X125502300Y-114777482D01*
X125366932Y-114666388D01*
X125212492Y-114583838D01*
X125044915Y-114533005D01*
X124914308Y-114520141D01*
X124914301Y-114520141D01*
X124870641Y-114515841D01*
X124826981Y-114520141D01*
X124420968Y-114520141D01*
X124378756Y-114491936D01*
X124190398Y-114413915D01*
X123990439Y-114374141D01*
X123786561Y-114374141D01*
X123586602Y-114413915D01*
X123398244Y-114491936D01*
X123228726Y-114605204D01*
X123084563Y-114749367D01*
X123082504Y-114752449D01*
X123018896Y-114700247D01*
X122864456Y-114617697D01*
X122696879Y-114566864D01*
X122566272Y-114554000D01*
X122522605Y-114549699D01*
X122478938Y-114554000D01*
X120600660Y-114554000D01*
X120557000Y-114549700D01*
X120513340Y-114554000D01*
X120513333Y-114554000D01*
X120399325Y-114565229D01*
X120382725Y-114566864D01*
X120326769Y-114583838D01*
X120215149Y-114617697D01*
X120060709Y-114700247D01*
X119925341Y-114811341D01*
X119897501Y-114845264D01*
X119747895Y-114994870D01*
X119698102Y-115004774D01*
X119509744Y-115082795D01*
X119340226Y-115196063D01*
X119196063Y-115340226D01*
X119160000Y-115394198D01*
X119160000Y-113314891D01*
X120882000Y-113314891D01*
X120882000Y-113366683D01*
X120906403Y-113489364D01*
X120954270Y-113604926D01*
X121023763Y-113708930D01*
X121112211Y-113797378D01*
X121216215Y-113866871D01*
X121331777Y-113914738D01*
X121454458Y-113939141D01*
X121483250Y-113939141D01*
X121642000Y-113780391D01*
X121642000Y-113156141D01*
X121040750Y-113156141D01*
X120882000Y-113314891D01*
X119160000Y-113314891D01*
X119160000Y-108864891D01*
X120425000Y-108864891D01*
X120425000Y-108916683D01*
X120449403Y-109039364D01*
X120497270Y-109154926D01*
X120566763Y-109258930D01*
X120593546Y-109285713D01*
X120568569Y-109323094D01*
X120499971Y-109488704D01*
X120465000Y-109664514D01*
X120465000Y-109843768D01*
X120499971Y-110019578D01*
X120568569Y-110185188D01*
X120661928Y-110324910D01*
X120661928Y-110529141D01*
X120674188Y-110653623D01*
X120710498Y-110773321D01*
X120715088Y-110781908D01*
X120689403Y-110843918D01*
X120665000Y-110966599D01*
X120665000Y-111168391D01*
X120691729Y-111195120D01*
X120639050Y-111247799D01*
X120718390Y-111327139D01*
X120665000Y-111327139D01*
X120665000Y-111370846D01*
X120567753Y-111374622D01*
X120499470Y-111540361D01*
X120464831Y-111716237D01*
X120465171Y-111895491D01*
X120500474Y-112071235D01*
X120567753Y-112233660D01*
X120758471Y-112241065D01*
X120770251Y-112229285D01*
X120806763Y-112283930D01*
X120895211Y-112372378D01*
X120949856Y-112408890D01*
X120938076Y-112420670D01*
X120940624Y-112486300D01*
X120906403Y-112568918D01*
X120882000Y-112691599D01*
X120882000Y-112743391D01*
X121040750Y-112902141D01*
X121642000Y-112902141D01*
X121642000Y-112882141D01*
X121892000Y-112882141D01*
X121892000Y-112902141D01*
X121894928Y-112902141D01*
X121894928Y-113156141D01*
X121892000Y-113156141D01*
X121892000Y-113780391D01*
X122050750Y-113939141D01*
X122079542Y-113939141D01*
X122202223Y-113914738D01*
X122273247Y-113885319D01*
X122288820Y-113893643D01*
X122408518Y-113929953D01*
X122533000Y-113942213D01*
X123033000Y-113942213D01*
X123157482Y-113929953D01*
X123277180Y-113893643D01*
X123372209Y-113842848D01*
X123417438Y-113888077D01*
X123586956Y-114001345D01*
X123775314Y-114079366D01*
X123975273Y-114119140D01*
X124179151Y-114119140D01*
X124292869Y-114096520D01*
X124409427Y-114213078D01*
X124578945Y-114326346D01*
X124767303Y-114404367D01*
X124967262Y-114444141D01*
X125171140Y-114444141D01*
X125371099Y-114404367D01*
X125559457Y-114326346D01*
X125728975Y-114213078D01*
X125772912Y-114169141D01*
X126649078Y-114169141D01*
X126686400Y-114172817D01*
X126723722Y-114169141D01*
X126723733Y-114169141D01*
X126835386Y-114158144D01*
X126978647Y-114114687D01*
X127110676Y-114044115D01*
X127226401Y-113949142D01*
X127250204Y-113920138D01*
X127510597Y-113659745D01*
X127539601Y-113635942D01*
X127634574Y-113520217D01*
X127705146Y-113388188D01*
X127748603Y-113244927D01*
X127759600Y-113133274D01*
X127759600Y-113133266D01*
X127763276Y-113095941D01*
X127759600Y-113058616D01*
X127759600Y-112744139D01*
X127908996Y-112594743D01*
X127912079Y-112592213D01*
X128210500Y-112592213D01*
X128334982Y-112579953D01*
X128373000Y-112568420D01*
X128411018Y-112579953D01*
X128535500Y-112592213D01*
X128860500Y-112592213D01*
X128984982Y-112579953D01*
X129023000Y-112568420D01*
X129061018Y-112579953D01*
X129116911Y-112585458D01*
X129108728Y-112668541D01*
X129108728Y-113218541D01*
X129120988Y-113343023D01*
X129157298Y-113462721D01*
X129216263Y-113573035D01*
X129295615Y-113669726D01*
X129392306Y-113749078D01*
X129502620Y-113808043D01*
X129622318Y-113844353D01*
X129746800Y-113856613D01*
X130246800Y-113856613D01*
X130371282Y-113844353D01*
X130490980Y-113808043D01*
X130506553Y-113799719D01*
X130577577Y-113829138D01*
X130700258Y-113853541D01*
X130729050Y-113853541D01*
X130887800Y-113694791D01*
X130887800Y-113070541D01*
X131137800Y-113070541D01*
X131137800Y-113694791D01*
X131296550Y-113853541D01*
X131325342Y-113853541D01*
X131448023Y-113829138D01*
X131563585Y-113781271D01*
X131667589Y-113711778D01*
X131756037Y-113623330D01*
X131825530Y-113519326D01*
X131873397Y-113403764D01*
X131897800Y-113281083D01*
X131897800Y-113229291D01*
X131739050Y-113070541D01*
X131137800Y-113070541D01*
X130887800Y-113070541D01*
X130884872Y-113070541D01*
X130884872Y-112816541D01*
X130887800Y-112816541D01*
X130887800Y-112796541D01*
X131137800Y-112796541D01*
X131137800Y-112816541D01*
X131739050Y-112816541D01*
X131897800Y-112657791D01*
X131897800Y-112605999D01*
X131873397Y-112483318D01*
X131825530Y-112367756D01*
X131772605Y-112288547D01*
X131816737Y-112244415D01*
X131930005Y-112074897D01*
X132008026Y-111886539D01*
X132047800Y-111686580D01*
X132047800Y-111482702D01*
X132008026Y-111282743D01*
X131930005Y-111094385D01*
X131923804Y-111085105D01*
X131985730Y-110992426D01*
X132033597Y-110876864D01*
X132055518Y-110766659D01*
X132058000Y-110769141D01*
X132058000Y-110754183D01*
X132055518Y-110766659D01*
X131980800Y-110691941D01*
X133846859Y-110691942D01*
X133989644Y-110787347D01*
X134178002Y-110865368D01*
X134377961Y-110905142D01*
X134581839Y-110905142D01*
X134781798Y-110865368D01*
X134970156Y-110787347D01*
X135139674Y-110674079D01*
X135283837Y-110529916D01*
X135397105Y-110360398D01*
X135475126Y-110172040D01*
X135514900Y-109972081D01*
X135514900Y-109768203D01*
X135475126Y-109568244D01*
X135397105Y-109379886D01*
X135283837Y-109210368D01*
X135283370Y-109209901D01*
X135371705Y-109077697D01*
X135449726Y-108889339D01*
X135489500Y-108689380D01*
X135489500Y-108485502D01*
X135449726Y-108285543D01*
X135371705Y-108097185D01*
X135258437Y-107927667D01*
X135238761Y-107907991D01*
X135283837Y-107862915D01*
X135397105Y-107693397D01*
X135475126Y-107505039D01*
X135514900Y-107305080D01*
X135514900Y-107101202D01*
X135475126Y-106901243D01*
X135397105Y-106712885D01*
X135340741Y-106628531D01*
X135359005Y-106601197D01*
X135437026Y-106412839D01*
X135476800Y-106212880D01*
X135476800Y-106009002D01*
X135437026Y-105809043D01*
X135359005Y-105620685D01*
X135245737Y-105451167D01*
X135101574Y-105307004D01*
X134932056Y-105193736D01*
X134743698Y-105115715D01*
X134543739Y-105075941D01*
X134339861Y-105075941D01*
X134139902Y-105115715D01*
X133951544Y-105193736D01*
X133782026Y-105307004D01*
X133637863Y-105451167D01*
X133524595Y-105620685D01*
X133446574Y-105809043D01*
X133415088Y-105967334D01*
X132266082Y-107116341D01*
X132061042Y-107116341D01*
X132048812Y-106992159D01*
X132037279Y-106954141D01*
X132048812Y-106916123D01*
X132061072Y-106791641D01*
X132061072Y-106466641D01*
X132048812Y-106342159D01*
X132012502Y-106222461D01*
X131953537Y-106112147D01*
X131874185Y-106015456D01*
X131860800Y-106004471D01*
X131860800Y-105956435D01*
X132005736Y-105811499D01*
X132039659Y-105783659D01*
X132150753Y-105648291D01*
X132233303Y-105493851D01*
X132275004Y-105356379D01*
X132284136Y-105326275D01*
X132291195Y-105254604D01*
X132297000Y-105195667D01*
X132297000Y-105195660D01*
X132301300Y-105152000D01*
X132297000Y-105108340D01*
X132297000Y-104813072D01*
X132550000Y-104813072D01*
X132674482Y-104800812D01*
X132794180Y-104764502D01*
X132904494Y-104705537D01*
X133001185Y-104626185D01*
X133080537Y-104529494D01*
X133139502Y-104419180D01*
X133175812Y-104299482D01*
X133188072Y-104175000D01*
X133188072Y-103953089D01*
X133193301Y-103900000D01*
X133188072Y-103846911D01*
X133188072Y-103625000D01*
X133175812Y-103500518D01*
X133139502Y-103380820D01*
X133080537Y-103270506D01*
X133001185Y-103173815D01*
X132904494Y-103094463D01*
X132794180Y-103035498D01*
X132674482Y-102999188D01*
X132550000Y-102986928D01*
X132050000Y-102986928D01*
X131925518Y-102999188D01*
X131886579Y-103011000D01*
X131821421Y-103011000D01*
X131782482Y-102999188D01*
X131658000Y-102986928D01*
X131297000Y-102986928D01*
X131297000Y-102793660D01*
X131301300Y-102750000D01*
X131297000Y-102706340D01*
X131297000Y-102706333D01*
X131296072Y-102696911D01*
X131296072Y-102475000D01*
X131283812Y-102350518D01*
X131279000Y-102334655D01*
X131279000Y-102161421D01*
X131290812Y-102122482D01*
X131303072Y-101998000D01*
X131303072Y-101498000D01*
X131290812Y-101373518D01*
X131254502Y-101253820D01*
X131247115Y-101240000D01*
X131254502Y-101226180D01*
X131290812Y-101106482D01*
X131303072Y-100982000D01*
X131303072Y-100482000D01*
X131290812Y-100357518D01*
X131254502Y-100237820D01*
X131244977Y-100220000D01*
X131254502Y-100202180D01*
X131290812Y-100082482D01*
X131303072Y-99958000D01*
X131303072Y-99458000D01*
X131290812Y-99333518D01*
X131254502Y-99213820D01*
X131247115Y-99200000D01*
X131254502Y-99186180D01*
X131276679Y-99113072D01*
X131442000Y-99113072D01*
X131566482Y-99100812D01*
X131686180Y-99064502D01*
X131796494Y-99005537D01*
X131893185Y-98926185D01*
X131972537Y-98829494D01*
X132031502Y-98719180D01*
X132067812Y-98599482D01*
X132080072Y-98475000D01*
X132080072Y-98253089D01*
X132085301Y-98200000D01*
X132080072Y-98146911D01*
X132080072Y-97925000D01*
X132067812Y-97800518D01*
X132031502Y-97680820D01*
X131972537Y-97570506D01*
X131893185Y-97473815D01*
X131863829Y-97449723D01*
X131946494Y-97405537D01*
X132043185Y-97326185D01*
X132122537Y-97229494D01*
X132181502Y-97119180D01*
X132217812Y-96999482D01*
X132230072Y-96875000D01*
X132230072Y-96653083D01*
X132235300Y-96600000D01*
X132230072Y-96546918D01*
X132230072Y-96325000D01*
X132217812Y-96200518D01*
X132181502Y-96080820D01*
X132139000Y-96001306D01*
X132139000Y-95917036D01*
X132149068Y-95892729D01*
X132185000Y-95712089D01*
X132185000Y-95527911D01*
X132149068Y-95347271D01*
X132078586Y-95177111D01*
X131976262Y-95023972D01*
X131846028Y-94893738D01*
X131692889Y-94791414D01*
X131522729Y-94720932D01*
X131342089Y-94685000D01*
X131157911Y-94685000D01*
X130977271Y-94720932D01*
X130952964Y-94731000D01*
X130664659Y-94731000D01*
X130620999Y-94726700D01*
X130577339Y-94731000D01*
X130577333Y-94731000D01*
X130479924Y-94740594D01*
X130446724Y-94743864D01*
X130368720Y-94767526D01*
X130279149Y-94794697D01*
X130124709Y-94877247D01*
X129989341Y-94988341D01*
X129961498Y-95022268D01*
X129792265Y-95191500D01*
X129758341Y-95219341D01*
X129647247Y-95354710D01*
X129564697Y-95509150D01*
X129513864Y-95676727D01*
X129509602Y-95720000D01*
X129209333Y-95720000D01*
X129169452Y-95723928D01*
X128975000Y-95723928D01*
X128850518Y-95736188D01*
X128730820Y-95772498D01*
X128620506Y-95831463D01*
X128523815Y-95910815D01*
X128444463Y-96007506D01*
X128385498Y-96117820D01*
X128349188Y-96237518D01*
X128336928Y-96362000D01*
X128336928Y-96862000D01*
X128349188Y-96986482D01*
X128385498Y-97106180D01*
X128392885Y-97120000D01*
X128385498Y-97133820D01*
X128349188Y-97253518D01*
X128336928Y-97378000D01*
X128336928Y-97878000D01*
X128349188Y-98002482D01*
X128385498Y-98122180D01*
X128444463Y-98232494D01*
X128523815Y-98329185D01*
X128620506Y-98408537D01*
X128730820Y-98467502D01*
X128850518Y-98503812D01*
X128975000Y-98516072D01*
X129196911Y-98516072D01*
X129206333Y-98517000D01*
X129476928Y-98517000D01*
X129476928Y-98942000D01*
X129489188Y-99066482D01*
X129525498Y-99186180D01*
X129532885Y-99200000D01*
X129525498Y-99213820D01*
X129489188Y-99333518D01*
X129476928Y-99458000D01*
X129476928Y-99577088D01*
X129464766Y-99700568D01*
X129464767Y-100700564D01*
X129460466Y-100744234D01*
X129476928Y-100911380D01*
X129476928Y-100982000D01*
X129489188Y-101106482D01*
X129525498Y-101226180D01*
X129532885Y-101240000D01*
X129525498Y-101253820D01*
X129489188Y-101373518D01*
X129476928Y-101498000D01*
X129476928Y-101528620D01*
X129460466Y-101695766D01*
X129474369Y-101836928D01*
X129142000Y-101836928D01*
X129017518Y-101849188D01*
X128978579Y-101861000D01*
X128792711Y-101861000D01*
X128813937Y-101839774D01*
X128927205Y-101670256D01*
X129005226Y-101481898D01*
X129045000Y-101281939D01*
X129045000Y-101078061D01*
X129005226Y-100878102D01*
X128927205Y-100689744D01*
X128813937Y-100520226D01*
X128669774Y-100376063D01*
X128500256Y-100262795D01*
X128311898Y-100184774D01*
X128111939Y-100145000D01*
X127908061Y-100145000D01*
X127865999Y-100153367D01*
X127851494Y-100141463D01*
X127741180Y-100082498D01*
X127621482Y-100046188D01*
X127497000Y-100033928D01*
X126481000Y-100033928D01*
X126356518Y-100046188D01*
X126236820Y-100082498D01*
X126126506Y-100141463D01*
X126100234Y-100163024D01*
X126019785Y-100109270D01*
X125904223Y-100061403D01*
X125781542Y-100037000D01*
X125496750Y-100037000D01*
X125338000Y-100195750D01*
X125338000Y-101053000D01*
X125358000Y-101053000D01*
X125358000Y-101307000D01*
X125338000Y-101307000D01*
X125338000Y-102164250D01*
X125343141Y-102169391D01*
X125343141Y-102632000D01*
X125346069Y-102632000D01*
X125346069Y-102705912D01*
X125345141Y-102715334D01*
X125345141Y-102715340D01*
X125340841Y-102759000D01*
X125345141Y-102802661D01*
X125345141Y-102886000D01*
X125343141Y-102886000D01*
X125343141Y-103775000D01*
X125345142Y-103775000D01*
X125345142Y-103858325D01*
X125345141Y-103858334D01*
X125345141Y-103959665D01*
X125340841Y-104003325D01*
X125343370Y-104029000D01*
X125343141Y-104029000D01*
X125343141Y-104653250D01*
X125465623Y-104775732D01*
X125404963Y-104849647D01*
X125345998Y-104959961D01*
X125309688Y-105079659D01*
X125297428Y-105204141D01*
X125297428Y-105649677D01*
X125243211Y-105685904D01*
X125154763Y-105774352D01*
X125118536Y-105828569D01*
X124793045Y-105828569D01*
X124778039Y-105676206D01*
X124731562Y-105522992D01*
X124656088Y-105381790D01*
X124579966Y-105289036D01*
X124554516Y-105258025D01*
X124523505Y-105232575D01*
X123534576Y-104243646D01*
X123509117Y-104212624D01*
X123478808Y-104187750D01*
X124333141Y-104187750D01*
X124333141Y-104239542D01*
X124357544Y-104362223D01*
X124405411Y-104477785D01*
X124474904Y-104581789D01*
X124563352Y-104670237D01*
X124667356Y-104739730D01*
X124782918Y-104787597D01*
X124905599Y-104812000D01*
X124934391Y-104812000D01*
X125093141Y-104653250D01*
X125093141Y-104029000D01*
X124491891Y-104029000D01*
X124333141Y-104187750D01*
X123478808Y-104187750D01*
X123385352Y-104111053D01*
X123244150Y-104035579D01*
X123090937Y-103989102D01*
X122971523Y-103977341D01*
X122971520Y-103977341D01*
X122931600Y-103973409D01*
X122912981Y-103975243D01*
X122820180Y-103925639D01*
X122700482Y-103889329D01*
X122576000Y-103877069D01*
X122076000Y-103877069D01*
X121951518Y-103889329D01*
X121831820Y-103925639D01*
X121816247Y-103933963D01*
X121745223Y-103904544D01*
X121622542Y-103880141D01*
X121593750Y-103880141D01*
X121435000Y-104038891D01*
X121435000Y-104663141D01*
X121437928Y-104663141D01*
X121437928Y-104917141D01*
X121435000Y-104917141D01*
X121435000Y-105933141D01*
X121437928Y-105933141D01*
X121437928Y-106187141D01*
X121435000Y-106187141D01*
X121435000Y-107203140D01*
X121437928Y-107203140D01*
X121437928Y-107457140D01*
X121435000Y-107457140D01*
X121435000Y-108414068D01*
X121142928Y-108706141D01*
X120583750Y-108706141D01*
X120425000Y-108864891D01*
X119160000Y-108864891D01*
X119160000Y-107615890D01*
X120425000Y-107615890D01*
X120425000Y-107667682D01*
X120449403Y-107790363D01*
X120497270Y-107905925D01*
X120529821Y-107954641D01*
X120497270Y-108003356D01*
X120449403Y-108118918D01*
X120425000Y-108241599D01*
X120425000Y-108293391D01*
X120583750Y-108452141D01*
X121185000Y-108452141D01*
X121185000Y-107457140D01*
X120583750Y-107457140D01*
X120425000Y-107615890D01*
X119160000Y-107615890D01*
X119160000Y-106345891D01*
X120425000Y-106345891D01*
X120425000Y-106397683D01*
X120449403Y-106520364D01*
X120497270Y-106635926D01*
X120536836Y-106695141D01*
X120497270Y-106754355D01*
X120449403Y-106869917D01*
X120425000Y-106992598D01*
X120425000Y-107044390D01*
X120583750Y-107203140D01*
X121185000Y-107203140D01*
X121185000Y-106187141D01*
X120583750Y-106187141D01*
X120425000Y-106345891D01*
X119160000Y-106345891D01*
X119160000Y-105075891D01*
X120425000Y-105075891D01*
X120425000Y-105127683D01*
X120449403Y-105250364D01*
X120497270Y-105365926D01*
X120536836Y-105425141D01*
X120497270Y-105484356D01*
X120449403Y-105599918D01*
X120425000Y-105722599D01*
X120425000Y-105774391D01*
X120583750Y-105933141D01*
X121185000Y-105933141D01*
X121185000Y-104917141D01*
X120583750Y-104917141D01*
X120425000Y-105075891D01*
X119160000Y-105075891D01*
X119160000Y-104452599D01*
X120425000Y-104452599D01*
X120425000Y-104504391D01*
X120583750Y-104663141D01*
X121185000Y-104663141D01*
X121185000Y-104038891D01*
X121026250Y-103880141D01*
X120997458Y-103880141D01*
X120874777Y-103904544D01*
X120759215Y-103952411D01*
X120655211Y-104021904D01*
X120566763Y-104110352D01*
X120497270Y-104214356D01*
X120449403Y-104329918D01*
X120425000Y-104452599D01*
X119160000Y-104452599D01*
X119160000Y-103044750D01*
X124333141Y-103044750D01*
X124333141Y-103096542D01*
X124357544Y-103219223D01*
X124403636Y-103330500D01*
X124357544Y-103441777D01*
X124333141Y-103564458D01*
X124333141Y-103616250D01*
X124491891Y-103775000D01*
X125093141Y-103775000D01*
X125093141Y-102886000D01*
X124491891Y-102886000D01*
X124333141Y-103044750D01*
X119160000Y-103044750D01*
X119160000Y-100298179D01*
X120047000Y-100298179D01*
X120047000Y-100621821D01*
X120110139Y-100939245D01*
X120233992Y-101238252D01*
X120413798Y-101507352D01*
X120642648Y-101736202D01*
X120911748Y-101916008D01*
X121210755Y-102039861D01*
X121528179Y-102103000D01*
X121851821Y-102103000D01*
X122169245Y-102039861D01*
X122468252Y-101916008D01*
X122737352Y-101736202D01*
X122966202Y-101507352D01*
X122993999Y-101465750D01*
X124068000Y-101465750D01*
X124068000Y-101750542D01*
X124092403Y-101873223D01*
X124140270Y-101988785D01*
X124209763Y-102092789D01*
X124298211Y-102181237D01*
X124382815Y-102237767D01*
X124357544Y-102298777D01*
X124333141Y-102421458D01*
X124333141Y-102473250D01*
X124491891Y-102632000D01*
X125093141Y-102632000D01*
X125093141Y-102007750D01*
X125084000Y-101998609D01*
X125084000Y-101307000D01*
X124226750Y-101307000D01*
X124068000Y-101465750D01*
X122993999Y-101465750D01*
X123146008Y-101238252D01*
X123269861Y-100939245D01*
X123333000Y-100621821D01*
X123333000Y-100609458D01*
X124068000Y-100609458D01*
X124068000Y-100894250D01*
X124226750Y-101053000D01*
X125084000Y-101053000D01*
X125084000Y-100195750D01*
X124925250Y-100037000D01*
X124640458Y-100037000D01*
X124517777Y-100061403D01*
X124402215Y-100109270D01*
X124298211Y-100178763D01*
X124209763Y-100267211D01*
X124140270Y-100371215D01*
X124092403Y-100486777D01*
X124068000Y-100609458D01*
X123333000Y-100609458D01*
X123333000Y-100298179D01*
X123269861Y-99980755D01*
X123146008Y-99681748D01*
X122966202Y-99412648D01*
X122737352Y-99183798D01*
X122468252Y-99003992D01*
X122169245Y-98880139D01*
X121851821Y-98817000D01*
X121528179Y-98817000D01*
X121210755Y-98880139D01*
X120911748Y-99003992D01*
X120642648Y-99183798D01*
X120413798Y-99412648D01*
X120233992Y-99681748D01*
X120110139Y-99980755D01*
X120047000Y-100298179D01*
X119160000Y-100298179D01*
X119160000Y-90160000D01*
X130213000Y-90160000D01*
X130213000Y-92960000D01*
X130213000Y-92960000D01*
G37*
X130213000Y-92960000D02*
X130215363Y-92984386D01*
X130222516Y-93008233D01*
X130234183Y-93030226D01*
X130249916Y-93049521D01*
X130269112Y-93065375D01*
X130291032Y-93077180D01*
X130314833Y-93084481D01*
X130339602Y-93086999D01*
X130721928Y-93088198D01*
X130721928Y-93217741D01*
X130734188Y-93342223D01*
X130770498Y-93461921D01*
X130829463Y-93572235D01*
X130876303Y-93629310D01*
X130884774Y-93671898D01*
X130962795Y-93860256D01*
X131076063Y-94029774D01*
X131220226Y-94173937D01*
X131389744Y-94287205D01*
X131578102Y-94365226D01*
X131778061Y-94405000D01*
X131981939Y-94405000D01*
X132181898Y-94365226D01*
X132370256Y-94287205D01*
X132539774Y-94173937D01*
X132683937Y-94029774D01*
X132797205Y-93860256D01*
X132875226Y-93671898D01*
X132880498Y-93645393D01*
X132940537Y-93572235D01*
X132999502Y-93461921D01*
X133035812Y-93342223D01*
X133048072Y-93217741D01*
X133048072Y-93095490D01*
X133529602Y-93096999D01*
X133554414Y-93094631D01*
X133578260Y-93087473D01*
X133600250Y-93075801D01*
X133619541Y-93060063D01*
X133635391Y-93040864D01*
X133647191Y-93018942D01*
X133654487Y-92995138D01*
X133656999Y-92970369D01*
X133665169Y-90160000D01*
X136340001Y-90160000D01*
X136340000Y-116193923D01*
X135133960Y-116188586D01*
X135219707Y-116060256D01*
X135297728Y-115871898D01*
X135337502Y-115671939D01*
X135337502Y-115468061D01*
X135297728Y-115268102D01*
X135219707Y-115079744D01*
X135106439Y-114910226D01*
X134962276Y-114766063D01*
X134792758Y-114652795D01*
X134604400Y-114574774D01*
X134404441Y-114535000D01*
X134200563Y-114535000D01*
X134000604Y-114574774D01*
X133812246Y-114652795D01*
X133770034Y-114681000D01*
X132822159Y-114681000D01*
X132778499Y-114676700D01*
X132734839Y-114681000D01*
X132734833Y-114681000D01*
X132604226Y-114693864D01*
X132436649Y-114744697D01*
X132282209Y-114827247D01*
X132212306Y-114884615D01*
X132121937Y-114749367D01*
X131977774Y-114605204D01*
X131808256Y-114491936D01*
X131619898Y-114413915D01*
X131419939Y-114374141D01*
X131216061Y-114374141D01*
X131016102Y-114413915D01*
X130827744Y-114491936D01*
X130785532Y-114520141D01*
X130335405Y-114520141D01*
X130291745Y-114515841D01*
X130248085Y-114520141D01*
X130248079Y-114520141D01*
X130135819Y-114531198D01*
X130117471Y-114533005D01*
X130066638Y-114548425D01*
X129949895Y-114583838D01*
X129795455Y-114666388D01*
X129683763Y-114758052D01*
X129564774Y-114639063D01*
X129395256Y-114525795D01*
X129206898Y-114447774D01*
X129006939Y-114408000D01*
X128803061Y-114408000D01*
X128603102Y-114447774D01*
X128414744Y-114525795D01*
X128372532Y-114554000D01*
X127869159Y-114554000D01*
X127825499Y-114549700D01*
X127781839Y-114554000D01*
X127781833Y-114554000D01*
X127684424Y-114563594D01*
X127651224Y-114566864D01*
X127573220Y-114590526D01*
X127483649Y-114617697D01*
X127329209Y-114700247D01*
X127193841Y-114811341D01*
X127166001Y-114845264D01*
X127004869Y-115006396D01*
X126970946Y-115034236D01*
X126859852Y-115169605D01*
X126820116Y-115243946D01*
X126716123Y-115254188D01*
X126596425Y-115290498D01*
X126486111Y-115349463D01*
X126389420Y-115428815D01*
X126332605Y-115498044D01*
X126275790Y-115428815D01*
X126179099Y-115349463D01*
X126068785Y-115290498D01*
X125949087Y-115254188D01*
X125862103Y-115245621D01*
X125856803Y-115228149D01*
X125774253Y-115073709D01*
X125663159Y-114938341D01*
X125629237Y-114910502D01*
X125530140Y-114811405D01*
X125502300Y-114777482D01*
X125366932Y-114666388D01*
X125212492Y-114583838D01*
X125044915Y-114533005D01*
X124914308Y-114520141D01*
X124914301Y-114520141D01*
X124870641Y-114515841D01*
X124826981Y-114520141D01*
X124420968Y-114520141D01*
X124378756Y-114491936D01*
X124190398Y-114413915D01*
X123990439Y-114374141D01*
X123786561Y-114374141D01*
X123586602Y-114413915D01*
X123398244Y-114491936D01*
X123228726Y-114605204D01*
X123084563Y-114749367D01*
X123082504Y-114752449D01*
X123018896Y-114700247D01*
X122864456Y-114617697D01*
X122696879Y-114566864D01*
X122566272Y-114554000D01*
X122522605Y-114549699D01*
X122478938Y-114554000D01*
X120600660Y-114554000D01*
X120557000Y-114549700D01*
X120513340Y-114554000D01*
X120513333Y-114554000D01*
X120399325Y-114565229D01*
X120382725Y-114566864D01*
X120326769Y-114583838D01*
X120215149Y-114617697D01*
X120060709Y-114700247D01*
X119925341Y-114811341D01*
X119897501Y-114845264D01*
X119747895Y-114994870D01*
X119698102Y-115004774D01*
X119509744Y-115082795D01*
X119340226Y-115196063D01*
X119196063Y-115340226D01*
X119160000Y-115394198D01*
X119160000Y-113314891D01*
X120882000Y-113314891D01*
X120882000Y-113366683D01*
X120906403Y-113489364D01*
X120954270Y-113604926D01*
X121023763Y-113708930D01*
X121112211Y-113797378D01*
X121216215Y-113866871D01*
X121331777Y-113914738D01*
X121454458Y-113939141D01*
X121483250Y-113939141D01*
X121642000Y-113780391D01*
X121642000Y-113156141D01*
X121040750Y-113156141D01*
X120882000Y-113314891D01*
X119160000Y-113314891D01*
X119160000Y-108864891D01*
X120425000Y-108864891D01*
X120425000Y-108916683D01*
X120449403Y-109039364D01*
X120497270Y-109154926D01*
X120566763Y-109258930D01*
X120593546Y-109285713D01*
X120568569Y-109323094D01*
X120499971Y-109488704D01*
X120465000Y-109664514D01*
X120465000Y-109843768D01*
X120499971Y-110019578D01*
X120568569Y-110185188D01*
X120661928Y-110324910D01*
X120661928Y-110529141D01*
X120674188Y-110653623D01*
X120710498Y-110773321D01*
X120715088Y-110781908D01*
X120689403Y-110843918D01*
X120665000Y-110966599D01*
X120665000Y-111168391D01*
X120691729Y-111195120D01*
X120639050Y-111247799D01*
X120718390Y-111327139D01*
X120665000Y-111327139D01*
X120665000Y-111370846D01*
X120567753Y-111374622D01*
X120499470Y-111540361D01*
X120464831Y-111716237D01*
X120465171Y-111895491D01*
X120500474Y-112071235D01*
X120567753Y-112233660D01*
X120758471Y-112241065D01*
X120770251Y-112229285D01*
X120806763Y-112283930D01*
X120895211Y-112372378D01*
X120949856Y-112408890D01*
X120938076Y-112420670D01*
X120940624Y-112486300D01*
X120906403Y-112568918D01*
X120882000Y-112691599D01*
X120882000Y-112743391D01*
X121040750Y-112902141D01*
X121642000Y-112902141D01*
X121642000Y-112882141D01*
X121892000Y-112882141D01*
X121892000Y-112902141D01*
X121894928Y-112902141D01*
X121894928Y-113156141D01*
X121892000Y-113156141D01*
X121892000Y-113780391D01*
X122050750Y-113939141D01*
X122079542Y-113939141D01*
X122202223Y-113914738D01*
X122273247Y-113885319D01*
X122288820Y-113893643D01*
X122408518Y-113929953D01*
X122533000Y-113942213D01*
X123033000Y-113942213D01*
X123157482Y-113929953D01*
X123277180Y-113893643D01*
X123372209Y-113842848D01*
X123417438Y-113888077D01*
X123586956Y-114001345D01*
X123775314Y-114079366D01*
X123975273Y-114119140D01*
X124179151Y-114119140D01*
X124292869Y-114096520D01*
X124409427Y-114213078D01*
X124578945Y-114326346D01*
X124767303Y-114404367D01*
X124967262Y-114444141D01*
X125171140Y-114444141D01*
X125371099Y-114404367D01*
X125559457Y-114326346D01*
X125728975Y-114213078D01*
X125772912Y-114169141D01*
X126649078Y-114169141D01*
X126686400Y-114172817D01*
X126723722Y-114169141D01*
X126723733Y-114169141D01*
X126835386Y-114158144D01*
X126978647Y-114114687D01*
X127110676Y-114044115D01*
X127226401Y-113949142D01*
X127250204Y-113920138D01*
X127510597Y-113659745D01*
X127539601Y-113635942D01*
X127634574Y-113520217D01*
X127705146Y-113388188D01*
X127748603Y-113244927D01*
X127759600Y-113133274D01*
X127759600Y-113133266D01*
X127763276Y-113095941D01*
X127759600Y-113058616D01*
X127759600Y-112744139D01*
X127908996Y-112594743D01*
X127912079Y-112592213D01*
X128210500Y-112592213D01*
X128334982Y-112579953D01*
X128373000Y-112568420D01*
X128411018Y-112579953D01*
X128535500Y-112592213D01*
X128860500Y-112592213D01*
X128984982Y-112579953D01*
X129023000Y-112568420D01*
X129061018Y-112579953D01*
X129116911Y-112585458D01*
X129108728Y-112668541D01*
X129108728Y-113218541D01*
X129120988Y-113343023D01*
X129157298Y-113462721D01*
X129216263Y-113573035D01*
X129295615Y-113669726D01*
X129392306Y-113749078D01*
X129502620Y-113808043D01*
X129622318Y-113844353D01*
X129746800Y-113856613D01*
X130246800Y-113856613D01*
X130371282Y-113844353D01*
X130490980Y-113808043D01*
X130506553Y-113799719D01*
X130577577Y-113829138D01*
X130700258Y-113853541D01*
X130729050Y-113853541D01*
X130887800Y-113694791D01*
X130887800Y-113070541D01*
X131137800Y-113070541D01*
X131137800Y-113694791D01*
X131296550Y-113853541D01*
X131325342Y-113853541D01*
X131448023Y-113829138D01*
X131563585Y-113781271D01*
X131667589Y-113711778D01*
X131756037Y-113623330D01*
X131825530Y-113519326D01*
X131873397Y-113403764D01*
X131897800Y-113281083D01*
X131897800Y-113229291D01*
X131739050Y-113070541D01*
X131137800Y-113070541D01*
X130887800Y-113070541D01*
X130884872Y-113070541D01*
X130884872Y-112816541D01*
X130887800Y-112816541D01*
X130887800Y-112796541D01*
X131137800Y-112796541D01*
X131137800Y-112816541D01*
X131739050Y-112816541D01*
X131897800Y-112657791D01*
X131897800Y-112605999D01*
X131873397Y-112483318D01*
X131825530Y-112367756D01*
X131772605Y-112288547D01*
X131816737Y-112244415D01*
X131930005Y-112074897D01*
X132008026Y-111886539D01*
X132047800Y-111686580D01*
X132047800Y-111482702D01*
X132008026Y-111282743D01*
X131930005Y-111094385D01*
X131923804Y-111085105D01*
X131985730Y-110992426D01*
X132033597Y-110876864D01*
X132055518Y-110766659D01*
X132058000Y-110769141D01*
X132058000Y-110754183D01*
X132055518Y-110766659D01*
X131980800Y-110691941D01*
X133846859Y-110691942D01*
X133989644Y-110787347D01*
X134178002Y-110865368D01*
X134377961Y-110905142D01*
X134581839Y-110905142D01*
X134781798Y-110865368D01*
X134970156Y-110787347D01*
X135139674Y-110674079D01*
X135283837Y-110529916D01*
X135397105Y-110360398D01*
X135475126Y-110172040D01*
X135514900Y-109972081D01*
X135514900Y-109768203D01*
X135475126Y-109568244D01*
X135397105Y-109379886D01*
X135283837Y-109210368D01*
X135283370Y-109209901D01*
X135371705Y-109077697D01*
X135449726Y-108889339D01*
X135489500Y-108689380D01*
X135489500Y-108485502D01*
X135449726Y-108285543D01*
X135371705Y-108097185D01*
X135258437Y-107927667D01*
X135238761Y-107907991D01*
X135283837Y-107862915D01*
X135397105Y-107693397D01*
X135475126Y-107505039D01*
X135514900Y-107305080D01*
X135514900Y-107101202D01*
X135475126Y-106901243D01*
X135397105Y-106712885D01*
X135340741Y-106628531D01*
X135359005Y-106601197D01*
X135437026Y-106412839D01*
X135476800Y-106212880D01*
X135476800Y-106009002D01*
X135437026Y-105809043D01*
X135359005Y-105620685D01*
X135245737Y-105451167D01*
X135101574Y-105307004D01*
X134932056Y-105193736D01*
X134743698Y-105115715D01*
X134543739Y-105075941D01*
X134339861Y-105075941D01*
X134139902Y-105115715D01*
X133951544Y-105193736D01*
X133782026Y-105307004D01*
X133637863Y-105451167D01*
X133524595Y-105620685D01*
X133446574Y-105809043D01*
X133415088Y-105967334D01*
X132266082Y-107116341D01*
X132061042Y-107116341D01*
X132048812Y-106992159D01*
X132037279Y-106954141D01*
X132048812Y-106916123D01*
X132061072Y-106791641D01*
X132061072Y-106466641D01*
X132048812Y-106342159D01*
X132012502Y-106222461D01*
X131953537Y-106112147D01*
X131874185Y-106015456D01*
X131860800Y-106004471D01*
X131860800Y-105956435D01*
X132005736Y-105811499D01*
X132039659Y-105783659D01*
X132150753Y-105648291D01*
X132233303Y-105493851D01*
X132275004Y-105356379D01*
X132284136Y-105326275D01*
X132291195Y-105254604D01*
X132297000Y-105195667D01*
X132297000Y-105195660D01*
X132301300Y-105152000D01*
X132297000Y-105108340D01*
X132297000Y-104813072D01*
X132550000Y-104813072D01*
X132674482Y-104800812D01*
X132794180Y-104764502D01*
X132904494Y-104705537D01*
X133001185Y-104626185D01*
X133080537Y-104529494D01*
X133139502Y-104419180D01*
X133175812Y-104299482D01*
X133188072Y-104175000D01*
X133188072Y-103953089D01*
X133193301Y-103900000D01*
X133188072Y-103846911D01*
X133188072Y-103625000D01*
X133175812Y-103500518D01*
X133139502Y-103380820D01*
X133080537Y-103270506D01*
X133001185Y-103173815D01*
X132904494Y-103094463D01*
X132794180Y-103035498D01*
X132674482Y-102999188D01*
X132550000Y-102986928D01*
X132050000Y-102986928D01*
X131925518Y-102999188D01*
X131886579Y-103011000D01*
X131821421Y-103011000D01*
X131782482Y-102999188D01*
X131658000Y-102986928D01*
X131297000Y-102986928D01*
X131297000Y-102793660D01*
X131301300Y-102750000D01*
X131297000Y-102706340D01*
X131297000Y-102706333D01*
X131296072Y-102696911D01*
X131296072Y-102475000D01*
X131283812Y-102350518D01*
X131279000Y-102334655D01*
X131279000Y-102161421D01*
X131290812Y-102122482D01*
X131303072Y-101998000D01*
X131303072Y-101498000D01*
X131290812Y-101373518D01*
X131254502Y-101253820D01*
X131247115Y-101240000D01*
X131254502Y-101226180D01*
X131290812Y-101106482D01*
X131303072Y-100982000D01*
X131303072Y-100482000D01*
X131290812Y-100357518D01*
X131254502Y-100237820D01*
X131244977Y-100220000D01*
X131254502Y-100202180D01*
X131290812Y-100082482D01*
X131303072Y-99958000D01*
X131303072Y-99458000D01*
X131290812Y-99333518D01*
X131254502Y-99213820D01*
X131247115Y-99200000D01*
X131254502Y-99186180D01*
X131276679Y-99113072D01*
X131442000Y-99113072D01*
X131566482Y-99100812D01*
X131686180Y-99064502D01*
X131796494Y-99005537D01*
X131893185Y-98926185D01*
X131972537Y-98829494D01*
X132031502Y-98719180D01*
X132067812Y-98599482D01*
X132080072Y-98475000D01*
X132080072Y-98253089D01*
X132085301Y-98200000D01*
X132080072Y-98146911D01*
X132080072Y-97925000D01*
X132067812Y-97800518D01*
X132031502Y-97680820D01*
X131972537Y-97570506D01*
X131893185Y-97473815D01*
X131863829Y-97449723D01*
X131946494Y-97405537D01*
X132043185Y-97326185D01*
X132122537Y-97229494D01*
X132181502Y-97119180D01*
X132217812Y-96999482D01*
X132230072Y-96875000D01*
X132230072Y-96653083D01*
X132235300Y-96600000D01*
X132230072Y-96546918D01*
X132230072Y-96325000D01*
X132217812Y-96200518D01*
X132181502Y-96080820D01*
X132139000Y-96001306D01*
X132139000Y-95917036D01*
X132149068Y-95892729D01*
X132185000Y-95712089D01*
X132185000Y-95527911D01*
X132149068Y-95347271D01*
X132078586Y-95177111D01*
X131976262Y-95023972D01*
X131846028Y-94893738D01*
X131692889Y-94791414D01*
X131522729Y-94720932D01*
X131342089Y-94685000D01*
X131157911Y-94685000D01*
X130977271Y-94720932D01*
X130952964Y-94731000D01*
X130664659Y-94731000D01*
X130620999Y-94726700D01*
X130577339Y-94731000D01*
X130577333Y-94731000D01*
X130479924Y-94740594D01*
X130446724Y-94743864D01*
X130368720Y-94767526D01*
X130279149Y-94794697D01*
X130124709Y-94877247D01*
X129989341Y-94988341D01*
X129961498Y-95022268D01*
X129792265Y-95191500D01*
X129758341Y-95219341D01*
X129647247Y-95354710D01*
X129564697Y-95509150D01*
X129513864Y-95676727D01*
X129509602Y-95720000D01*
X129209333Y-95720000D01*
X129169452Y-95723928D01*
X128975000Y-95723928D01*
X128850518Y-95736188D01*
X128730820Y-95772498D01*
X128620506Y-95831463D01*
X128523815Y-95910815D01*
X128444463Y-96007506D01*
X128385498Y-96117820D01*
X128349188Y-96237518D01*
X128336928Y-96362000D01*
X128336928Y-96862000D01*
X128349188Y-96986482D01*
X128385498Y-97106180D01*
X128392885Y-97120000D01*
X128385498Y-97133820D01*
X128349188Y-97253518D01*
X128336928Y-97378000D01*
X128336928Y-97878000D01*
X128349188Y-98002482D01*
X128385498Y-98122180D01*
X128444463Y-98232494D01*
X128523815Y-98329185D01*
X128620506Y-98408537D01*
X128730820Y-98467502D01*
X128850518Y-98503812D01*
X128975000Y-98516072D01*
X129196911Y-98516072D01*
X129206333Y-98517000D01*
X129476928Y-98517000D01*
X129476928Y-98942000D01*
X129489188Y-99066482D01*
X129525498Y-99186180D01*
X129532885Y-99200000D01*
X129525498Y-99213820D01*
X129489188Y-99333518D01*
X129476928Y-99458000D01*
X129476928Y-99577088D01*
X129464766Y-99700568D01*
X129464767Y-100700564D01*
X129460466Y-100744234D01*
X129476928Y-100911380D01*
X129476928Y-100982000D01*
X129489188Y-101106482D01*
X129525498Y-101226180D01*
X129532885Y-101240000D01*
X129525498Y-101253820D01*
X129489188Y-101373518D01*
X129476928Y-101498000D01*
X129476928Y-101528620D01*
X129460466Y-101695766D01*
X129474369Y-101836928D01*
X129142000Y-101836928D01*
X129017518Y-101849188D01*
X128978579Y-101861000D01*
X128792711Y-101861000D01*
X128813937Y-101839774D01*
X128927205Y-101670256D01*
X129005226Y-101481898D01*
X129045000Y-101281939D01*
X129045000Y-101078061D01*
X129005226Y-100878102D01*
X128927205Y-100689744D01*
X128813937Y-100520226D01*
X128669774Y-100376063D01*
X128500256Y-100262795D01*
X128311898Y-100184774D01*
X128111939Y-100145000D01*
X127908061Y-100145000D01*
X127865999Y-100153367D01*
X127851494Y-100141463D01*
X127741180Y-100082498D01*
X127621482Y-100046188D01*
X127497000Y-100033928D01*
X126481000Y-100033928D01*
X126356518Y-100046188D01*
X126236820Y-100082498D01*
X126126506Y-100141463D01*
X126100234Y-100163024D01*
X126019785Y-100109270D01*
X125904223Y-100061403D01*
X125781542Y-100037000D01*
X125496750Y-100037000D01*
X125338000Y-100195750D01*
X125338000Y-101053000D01*
X125358000Y-101053000D01*
X125358000Y-101307000D01*
X125338000Y-101307000D01*
X125338000Y-102164250D01*
X125343141Y-102169391D01*
X125343141Y-102632000D01*
X125346069Y-102632000D01*
X125346069Y-102705912D01*
X125345141Y-102715334D01*
X125345141Y-102715340D01*
X125340841Y-102759000D01*
X125345141Y-102802661D01*
X125345141Y-102886000D01*
X125343141Y-102886000D01*
X125343141Y-103775000D01*
X125345142Y-103775000D01*
X125345142Y-103858325D01*
X125345141Y-103858334D01*
X125345141Y-103959665D01*
X125340841Y-104003325D01*
X125343370Y-104029000D01*
X125343141Y-104029000D01*
X125343141Y-104653250D01*
X125465623Y-104775732D01*
X125404963Y-104849647D01*
X125345998Y-104959961D01*
X125309688Y-105079659D01*
X125297428Y-105204141D01*
X125297428Y-105649677D01*
X125243211Y-105685904D01*
X125154763Y-105774352D01*
X125118536Y-105828569D01*
X124793045Y-105828569D01*
X124778039Y-105676206D01*
X124731562Y-105522992D01*
X124656088Y-105381790D01*
X124579966Y-105289036D01*
X124554516Y-105258025D01*
X124523505Y-105232575D01*
X123534576Y-104243646D01*
X123509117Y-104212624D01*
X123478808Y-104187750D01*
X124333141Y-104187750D01*
X124333141Y-104239542D01*
X124357544Y-104362223D01*
X124405411Y-104477785D01*
X124474904Y-104581789D01*
X124563352Y-104670237D01*
X124667356Y-104739730D01*
X124782918Y-104787597D01*
X124905599Y-104812000D01*
X124934391Y-104812000D01*
X125093141Y-104653250D01*
X125093141Y-104029000D01*
X124491891Y-104029000D01*
X124333141Y-104187750D01*
X123478808Y-104187750D01*
X123385352Y-104111053D01*
X123244150Y-104035579D01*
X123090937Y-103989102D01*
X122971523Y-103977341D01*
X122971520Y-103977341D01*
X122931600Y-103973409D01*
X122912981Y-103975243D01*
X122820180Y-103925639D01*
X122700482Y-103889329D01*
X122576000Y-103877069D01*
X122076000Y-103877069D01*
X121951518Y-103889329D01*
X121831820Y-103925639D01*
X121816247Y-103933963D01*
X121745223Y-103904544D01*
X121622542Y-103880141D01*
X121593750Y-103880141D01*
X121435000Y-104038891D01*
X121435000Y-104663141D01*
X121437928Y-104663141D01*
X121437928Y-104917141D01*
X121435000Y-104917141D01*
X121435000Y-105933141D01*
X121437928Y-105933141D01*
X121437928Y-106187141D01*
X121435000Y-106187141D01*
X121435000Y-107203140D01*
X121437928Y-107203140D01*
X121437928Y-107457140D01*
X121435000Y-107457140D01*
X121435000Y-108414068D01*
X121142928Y-108706141D01*
X120583750Y-108706141D01*
X120425000Y-108864891D01*
X119160000Y-108864891D01*
X119160000Y-107615890D01*
X120425000Y-107615890D01*
X120425000Y-107667682D01*
X120449403Y-107790363D01*
X120497270Y-107905925D01*
X120529821Y-107954641D01*
X120497270Y-108003356D01*
X120449403Y-108118918D01*
X120425000Y-108241599D01*
X120425000Y-108293391D01*
X120583750Y-108452141D01*
X121185000Y-108452141D01*
X121185000Y-107457140D01*
X120583750Y-107457140D01*
X120425000Y-107615890D01*
X119160000Y-107615890D01*
X119160000Y-106345891D01*
X120425000Y-106345891D01*
X120425000Y-106397683D01*
X120449403Y-106520364D01*
X120497270Y-106635926D01*
X120536836Y-106695141D01*
X120497270Y-106754355D01*
X120449403Y-106869917D01*
X120425000Y-106992598D01*
X120425000Y-107044390D01*
X120583750Y-107203140D01*
X121185000Y-107203140D01*
X121185000Y-106187141D01*
X120583750Y-106187141D01*
X120425000Y-106345891D01*
X119160000Y-106345891D01*
X119160000Y-105075891D01*
X120425000Y-105075891D01*
X120425000Y-105127683D01*
X120449403Y-105250364D01*
X120497270Y-105365926D01*
X120536836Y-105425141D01*
X120497270Y-105484356D01*
X120449403Y-105599918D01*
X120425000Y-105722599D01*
X120425000Y-105774391D01*
X120583750Y-105933141D01*
X121185000Y-105933141D01*
X121185000Y-104917141D01*
X120583750Y-104917141D01*
X120425000Y-105075891D01*
X119160000Y-105075891D01*
X119160000Y-104452599D01*
X120425000Y-104452599D01*
X120425000Y-104504391D01*
X120583750Y-104663141D01*
X121185000Y-104663141D01*
X121185000Y-104038891D01*
X121026250Y-103880141D01*
X120997458Y-103880141D01*
X120874777Y-103904544D01*
X120759215Y-103952411D01*
X120655211Y-104021904D01*
X120566763Y-104110352D01*
X120497270Y-104214356D01*
X120449403Y-104329918D01*
X120425000Y-104452599D01*
X119160000Y-104452599D01*
X119160000Y-103044750D01*
X124333141Y-103044750D01*
X124333141Y-103096542D01*
X124357544Y-103219223D01*
X124403636Y-103330500D01*
X124357544Y-103441777D01*
X124333141Y-103564458D01*
X124333141Y-103616250D01*
X124491891Y-103775000D01*
X125093141Y-103775000D01*
X125093141Y-102886000D01*
X124491891Y-102886000D01*
X124333141Y-103044750D01*
X119160000Y-103044750D01*
X119160000Y-100298179D01*
X120047000Y-100298179D01*
X120047000Y-100621821D01*
X120110139Y-100939245D01*
X120233992Y-101238252D01*
X120413798Y-101507352D01*
X120642648Y-101736202D01*
X120911748Y-101916008D01*
X121210755Y-102039861D01*
X121528179Y-102103000D01*
X121851821Y-102103000D01*
X122169245Y-102039861D01*
X122468252Y-101916008D01*
X122737352Y-101736202D01*
X122966202Y-101507352D01*
X122993999Y-101465750D01*
X124068000Y-101465750D01*
X124068000Y-101750542D01*
X124092403Y-101873223D01*
X124140270Y-101988785D01*
X124209763Y-102092789D01*
X124298211Y-102181237D01*
X124382815Y-102237767D01*
X124357544Y-102298777D01*
X124333141Y-102421458D01*
X124333141Y-102473250D01*
X124491891Y-102632000D01*
X125093141Y-102632000D01*
X125093141Y-102007750D01*
X125084000Y-101998609D01*
X125084000Y-101307000D01*
X124226750Y-101307000D01*
X124068000Y-101465750D01*
X122993999Y-101465750D01*
X123146008Y-101238252D01*
X123269861Y-100939245D01*
X123333000Y-100621821D01*
X123333000Y-100609458D01*
X124068000Y-100609458D01*
X124068000Y-100894250D01*
X124226750Y-101053000D01*
X125084000Y-101053000D01*
X125084000Y-100195750D01*
X124925250Y-100037000D01*
X124640458Y-100037000D01*
X124517777Y-100061403D01*
X124402215Y-100109270D01*
X124298211Y-100178763D01*
X124209763Y-100267211D01*
X124140270Y-100371215D01*
X124092403Y-100486777D01*
X124068000Y-100609458D01*
X123333000Y-100609458D01*
X123333000Y-100298179D01*
X123269861Y-99980755D01*
X123146008Y-99681748D01*
X122966202Y-99412648D01*
X122737352Y-99183798D01*
X122468252Y-99003992D01*
X122169245Y-98880139D01*
X121851821Y-98817000D01*
X121528179Y-98817000D01*
X121210755Y-98880139D01*
X120911748Y-99003992D01*
X120642648Y-99183798D01*
X120413798Y-99412648D01*
X120233992Y-99681748D01*
X120110139Y-99980755D01*
X120047000Y-100298179D01*
X119160000Y-100298179D01*
X119160000Y-90160000D01*
X130213000Y-90160000D01*
X130213000Y-92960000D01*
G36*
X129395000Y-109718251D02*
G01*
X129395000Y-109840031D01*
X129308890Y-109926141D01*
X129187110Y-109926141D01*
X129101000Y-109840031D01*
X129101000Y-109718251D01*
X129187110Y-109632141D01*
X129308890Y-109632141D01*
X129395000Y-109718251D01*
X129395000Y-109718251D01*
G37*
X129395000Y-109718251D02*
X129395000Y-109840031D01*
X129308890Y-109926141D01*
X129187110Y-109926141D01*
X129101000Y-109840031D01*
X129101000Y-109718251D01*
X129187110Y-109632141D01*
X129308890Y-109632141D01*
X129395000Y-109718251D01*
G36*
X126995000Y-109718251D02*
G01*
X126995000Y-109840031D01*
X126908890Y-109926141D01*
X126787110Y-109926141D01*
X126701000Y-109840031D01*
X126701000Y-109718251D01*
X126787110Y-109632141D01*
X126908890Y-109632141D01*
X126995000Y-109718251D01*
X126995000Y-109718251D01*
G37*
X126995000Y-109718251D02*
X126995000Y-109840031D01*
X126908890Y-109926141D01*
X126787110Y-109926141D01*
X126701000Y-109840031D01*
X126701000Y-109718251D01*
X126787110Y-109632141D01*
X126908890Y-109632141D01*
X126995000Y-109718251D01*
G36*
X129395000Y-107318251D02*
G01*
X129395000Y-107440031D01*
X129308890Y-107526141D01*
X129187110Y-107526141D01*
X129101000Y-107440031D01*
X129101000Y-107318251D01*
X129187110Y-107232141D01*
X129308890Y-107232141D01*
X129395000Y-107318251D01*
X129395000Y-107318251D01*
G37*
X129395000Y-107318251D02*
X129395000Y-107440031D01*
X129308890Y-107526141D01*
X129187110Y-107526141D01*
X129101000Y-107440031D01*
X129101000Y-107318251D01*
X129187110Y-107232141D01*
X129308890Y-107232141D01*
X129395000Y-107318251D01*
G36*
X126995000Y-107318251D02*
G01*
X126995000Y-107440031D01*
X126908890Y-107526141D01*
X126787110Y-107526141D01*
X126701000Y-107440031D01*
X126701000Y-107318251D01*
X126787110Y-107232141D01*
X126908890Y-107232141D01*
X126995000Y-107318251D01*
X126995000Y-107318251D01*
G37*
X126995000Y-107318251D02*
X126995000Y-107440031D01*
X126908890Y-107526141D01*
X126787110Y-107526141D01*
X126701000Y-107440031D01*
X126701000Y-107318251D01*
X126787110Y-107232141D01*
X126908890Y-107232141D01*
X126995000Y-107318251D01*
G36*
X129333000Y-103803000D02*
G01*
X129355000Y-103803000D01*
X129355000Y-103997765D01*
X129338505Y-104014260D01*
X129287016Y-104077000D01*
X129211682Y-104077000D01*
X129083452Y-103948770D01*
X129085301Y-103930000D01*
X129080072Y-103876911D01*
X129080072Y-103803000D01*
X129083000Y-103803000D01*
X129083000Y-103783000D01*
X129333000Y-103783000D01*
X129333000Y-103803000D01*
X129333000Y-103803000D01*
G37*
X129333000Y-103803000D02*
X129355000Y-103803000D01*
X129355000Y-103997765D01*
X129338505Y-104014260D01*
X129287016Y-104077000D01*
X129211682Y-104077000D01*
X129083452Y-103948770D01*
X129085301Y-103930000D01*
X129080072Y-103876911D01*
X129080072Y-103803000D01*
X129083000Y-103803000D01*
X129083000Y-103783000D01*
X129333000Y-103783000D01*
X129333000Y-103803000D01*
M02*
