M48
; DRILL file {KiCad 5.1.0-rc1-unknown-9a8afdf~76~ubuntu18.04.1} date 21.02.2019 (чт) 15:29:09 EET
; FORMAT={-:-/ absolute / metric / decimal}
; #@! TF.CreationDate,2019-02-21T15:29:09+02:00
; #@! TF.GenerationSoftware,Kicad,Pcbnew,5.1.0-rc1-unknown-9a8afdf~76~ubuntu18.04.1
; #@! TF.FileFunction,Plated,1,2,PTH
FMAT,2
METRIC
T1C0.400
T2C0.600
%
G90
G05
T1
X120.0Y-116.0
X120.14Y-108.65
X120.14Y-109.92
X120.14Y-111.19
X120.14Y-112.46
X120.14Y-113.73
X121.304Y-103.393
X121.348Y-96.189
X121.356Y-98.086
X122.304Y-103.393
X122.348Y-96.189
X122.356Y-98.086
X122.961Y-106.06
X123.304Y-103.393
X123.348Y-96.189
X123.356Y-98.086
X123.369Y-109.728
X123.888Y-115.409
X124.041Y-111.255
X124.077Y-113.084
X124.348Y-96.189
X125.007Y-99.684
X125.069Y-111.957
X125.069Y-113.409
X125.348Y-96.189
X126.007Y-99.684
X126.348Y-96.189
X127.007Y-99.684
X127.348Y-96.189
X127.44Y-103.93
X128.01Y-101.18
X128.905Y-115.443
X129.02Y-101.75
X131.013Y-111.585
X131.318Y-115.409
X131.88Y-93.37
X132.48Y-105.64
X132.619Y-99.182
X132.619Y-100.182
X132.619Y-101.182
X133.37Y-104.75
X133.502Y-110.695
X133.502Y-111.695
X133.502Y-112.695
X133.6Y-96.2
X134.303Y-115.57
X134.442Y-106.111
X134.454Y-108.587
X134.48Y-107.203
X134.48Y-109.87
X134.58Y-104.75
X131.25Y-95.62
T2
X126.848Y-107.379
X126.848Y-109.779
X129.248Y-107.379
X129.248Y-109.779
T2
G00X128.36Y-94.409
M15
G01X126.96Y-94.409
M16
G05
G00X128.36Y-114.409
M15
G01X126.96Y-114.409
M16
G05
T0
M30
