G04 #@! TF.GenerationSoftware,KiCad,Pcbnew,5.1.0-rc1-unknown-9a8afdf~76~ubuntu18.04.1*
G04 #@! TF.CreationDate,2019-02-21T15:29:12+02:00
G04 #@! TF.ProjectId,MOD-LoRa_RevB,4d4f442d-4c6f-4526-915f-526576422e6b,rev?*
G04 #@! TF.SameCoordinates,Original*
G04 #@! TF.FileFunction,Paste,Top*
G04 #@! TF.FilePolarity,Positive*
%FSLAX46Y46*%
G04 Gerber Fmt 4.6, Leading zero omitted, Abs format (unit mm)*
G04 Created by KiCad (PCBNEW 5.1.0-rc1-unknown-9a8afdf~76~ubuntu18.04.1) date 2019-02-21 15:29:12*
%MOMM*%
%LPD*%
G04 APERTURE LIST*
%ADD10R,2.200000X2.200000*%
%ADD11R,0.335000X0.760000*%
%ADD12R,0.760000X0.335000*%
%ADD13R,1.049746X2.199746*%
%ADD14R,1.049746X1.049746*%
%ADD15R,1.015746X1.015746*%
%ADD16R,0.549746X0.499746*%
%ADD17C,0.549746*%
%ADD18R,0.749746X0.849746*%
%ADD19R,0.499746X0.549746*%
G04 APERTURE END LIST*
D10*
X129248000Y-109779141D03*
X129248000Y-107379141D03*
X126848000Y-109779141D03*
X126848000Y-107379141D03*
D11*
X126098000Y-105579141D03*
X126748000Y-105579141D03*
X127398000Y-105579141D03*
X128048000Y-105579141D03*
X128698000Y-105579141D03*
X129348000Y-105579141D03*
X129998000Y-105579141D03*
D12*
X131048000Y-106629141D03*
X131048000Y-107279141D03*
X131048000Y-107929141D03*
X131048000Y-108579141D03*
X131048000Y-109229141D03*
X131048000Y-109879141D03*
X131048000Y-110529141D03*
D11*
X129998000Y-111579141D03*
X129348000Y-111579141D03*
X128698000Y-111579141D03*
X128048000Y-111579141D03*
X127398000Y-111579141D03*
X126748000Y-111579141D03*
X126098000Y-111579141D03*
D12*
X125048000Y-110529141D03*
X125048000Y-109879141D03*
X125048000Y-109229141D03*
X125048000Y-108579141D03*
X125048000Y-107929141D03*
X125048000Y-107279141D03*
X125048000Y-106629141D03*
D13*
X130385000Y-91192741D03*
X133385000Y-91192741D03*
D14*
X131885000Y-92692741D03*
D15*
X125211000Y-101180000D03*
X126989000Y-101180000D03*
D16*
X130390000Y-96609000D03*
X130390000Y-97625000D03*
D17*
X121375000Y-111804141D03*
X121375000Y-109754141D03*
X123025000Y-109754141D03*
X123025000Y-111804141D03*
D18*
X121675000Y-111454141D03*
X121675000Y-110104141D03*
X122725000Y-110104141D03*
X122725000Y-111454141D03*
D16*
X130390000Y-98692000D03*
X130390000Y-99708000D03*
D19*
X132300000Y-103900000D03*
X133316000Y-103900000D03*
X129392000Y-102750000D03*
X130408000Y-102750000D03*
X126234141Y-102759000D03*
X125218141Y-102759000D03*
X129208000Y-103930000D03*
X128192000Y-103930000D03*
X130392000Y-103900000D03*
X131408000Y-103900000D03*
X132358000Y-96600000D03*
X131342000Y-96600000D03*
D16*
X129250000Y-97628000D03*
X129250000Y-96612000D03*
D19*
X132208000Y-98200000D03*
X131192000Y-98200000D03*
D16*
X130390000Y-101748000D03*
X130390000Y-100732000D03*
D19*
X126234141Y-103902000D03*
X125218141Y-103902000D03*
X131012800Y-112943541D03*
X129996800Y-112943541D03*
X121310000Y-107330140D03*
X122326000Y-107330140D03*
X121310000Y-104790141D03*
X122326000Y-104790141D03*
X121310000Y-106060141D03*
X122326000Y-106060141D03*
X121310000Y-108579141D03*
X122326000Y-108579141D03*
X121767000Y-113029141D03*
X122783000Y-113029141D03*
M02*
