G04 #@! TF.GenerationSoftware,KiCad,Pcbnew,5.1.0-rc2-unknown-4612175~81~ubuntu18.04.1*
G04 #@! TF.CreationDate,2019-03-08T09:47:56+02:00*
G04 #@! TF.ProjectId,LoRa_RevB,4c6f5261-5f52-4657-9642-2e6b69636164,rev?*
G04 #@! TF.SameCoordinates,Original*
G04 #@! TF.FileFunction,Soldermask,Top*
G04 #@! TF.FilePolarity,Negative*
%FSLAX46Y46*%
G04 Gerber Fmt 4.6, Leading zero omitted, Abs format (unit mm)*
G04 Created by KiCad (PCBNEW 5.1.0-rc2-unknown-4612175~81~ubuntu18.04.1) date 2019-03-08 09:47:56*
%MOMM*%
%LPD*%
G04 APERTURE LIST*
%ADD10C,1.254000*%
%ADD11C,1.879600*%
%ADD12C,1.778000*%
%ADD13C,0.100000*%
%ADD14O,2.502580X1.002580*%
%ADD15O,0.802580X20.802580*%
%ADD16O,16.802580X0.802580*%
%ADD17C,0.602580*%
%ADD18R,1.052580X1.052580*%
%ADD19R,1.052580X2.202580*%
%ADD20R,1.117600X1.117600*%
%ADD21R,0.651600X0.601600*%
%ADD22C,0.552580*%
%ADD23R,0.752580X0.852580*%
%ADD24C,1.352400*%
%ADD25R,2.552400X2.552400*%
%ADD26R,0.425000X0.850000*%
%ADD27R,0.850000X0.425000*%
%ADD28R,0.601600X0.651600*%
G04 APERTURE END LIST*
D10*
X94945200Y-78308200D03*
D11*
X74930000Y-55880000D03*
X74930000Y-58420000D03*
X74930000Y-60960000D03*
X74930000Y-68580000D03*
X74930000Y-71120000D03*
X74930000Y-66040000D03*
X74930000Y-63500000D03*
D12*
X74930000Y-73660000D03*
D13*
G36*
X73991516Y-73611400D02*
G01*
X74000067Y-73524578D01*
X74000798Y-73519646D01*
X74017818Y-73434080D01*
X74019029Y-73429245D01*
X74044354Y-73345759D01*
X74046034Y-73341064D01*
X74079421Y-73260463D01*
X74081552Y-73255957D01*
X74122677Y-73179016D01*
X74125240Y-73174740D01*
X74173710Y-73102200D01*
X74176680Y-73098196D01*
X74232025Y-73030757D01*
X74235373Y-73027063D01*
X74297063Y-72965373D01*
X74300757Y-72962025D01*
X74368196Y-72906680D01*
X74372200Y-72903710D01*
X74444740Y-72855240D01*
X74449016Y-72852677D01*
X74525957Y-72811552D01*
X74530463Y-72809421D01*
X74611064Y-72776034D01*
X74615759Y-72774354D01*
X74699245Y-72749029D01*
X74704080Y-72747818D01*
X74789646Y-72730798D01*
X74794578Y-72730067D01*
X74881400Y-72721516D01*
X74886379Y-72721271D01*
X74973621Y-72721271D01*
X74978600Y-72721516D01*
X75065422Y-72730067D01*
X75070354Y-72730798D01*
X75155920Y-72747818D01*
X75160755Y-72749029D01*
X75244241Y-72774354D01*
X75248936Y-72776034D01*
X75329537Y-72809421D01*
X75334043Y-72811552D01*
X75410984Y-72852677D01*
X75415260Y-72855240D01*
X75487800Y-72903710D01*
X75491804Y-72906680D01*
X75559243Y-72962025D01*
X75562937Y-72965373D01*
X75624627Y-73027063D01*
X75627975Y-73030757D01*
X75683320Y-73098196D01*
X75686290Y-73102200D01*
X75734760Y-73174740D01*
X75737323Y-73179016D01*
X75778448Y-73255957D01*
X75780579Y-73260463D01*
X75813966Y-73341064D01*
X75815646Y-73345759D01*
X75840971Y-73429245D01*
X75842182Y-73434080D01*
X75859202Y-73519646D01*
X75859933Y-73524578D01*
X75868484Y-73611400D01*
X75868729Y-73616379D01*
X75868729Y-73703621D01*
X75868484Y-73708600D01*
X75859933Y-73795422D01*
X75859202Y-73800354D01*
X75842182Y-73885920D01*
X75840971Y-73890755D01*
X75815646Y-73974241D01*
X75813966Y-73978936D01*
X75780579Y-74059537D01*
X75778448Y-74064043D01*
X75737323Y-74140984D01*
X75734760Y-74145260D01*
X75686290Y-74217800D01*
X75683320Y-74221804D01*
X75627975Y-74289243D01*
X75624627Y-74292937D01*
X75562937Y-74354627D01*
X75559243Y-74357975D01*
X75491804Y-74413320D01*
X75487800Y-74416290D01*
X75415260Y-74464760D01*
X75410984Y-74467323D01*
X75334043Y-74508448D01*
X75329537Y-74510579D01*
X75248936Y-74543966D01*
X75244241Y-74545646D01*
X75160755Y-74570971D01*
X75155920Y-74572182D01*
X75070354Y-74589202D01*
X75065422Y-74589933D01*
X74978600Y-74598484D01*
X74973621Y-74598729D01*
X74886379Y-74598729D01*
X74881400Y-74598484D01*
X74794578Y-74589933D01*
X74789646Y-74589202D01*
X74704080Y-74572182D01*
X74699245Y-74570971D01*
X74615759Y-74545646D01*
X74611064Y-74543966D01*
X74530463Y-74510579D01*
X74525957Y-74508448D01*
X74449016Y-74467323D01*
X74444740Y-74464760D01*
X74372200Y-74416290D01*
X74368196Y-74413320D01*
X74300757Y-74357975D01*
X74297063Y-74354627D01*
X74235373Y-74292937D01*
X74232025Y-74289243D01*
X74176680Y-74221804D01*
X74173710Y-74217800D01*
X74125240Y-74145260D01*
X74122677Y-74140984D01*
X74081552Y-74064043D01*
X74079421Y-74059537D01*
X74046034Y-73978936D01*
X74044354Y-73974241D01*
X74019029Y-73890755D01*
X74017818Y-73885920D01*
X74000798Y-73800354D01*
X74000067Y-73795422D01*
X73991516Y-73708600D01*
X73991271Y-73703621D01*
X73991271Y-73616379D01*
X73991516Y-73611400D01*
X73991516Y-73611400D01*
G37*
D11*
X73660000Y-66040000D03*
X73660000Y-68580000D03*
X73660000Y-71120000D03*
X73660000Y-73660000D03*
X73660000Y-63500000D03*
X73660000Y-60960000D03*
X73660000Y-55880000D03*
X73660000Y-58420000D03*
X95250000Y-73660000D03*
X95250000Y-71120000D03*
X95250000Y-68580000D03*
X95250000Y-60960000D03*
X95250000Y-58420000D03*
X95250000Y-63500000D03*
X95250000Y-66040000D03*
D12*
X95250000Y-55880000D03*
D13*
G36*
X96188484Y-55928600D02*
G01*
X96179933Y-56015422D01*
X96179202Y-56020354D01*
X96162182Y-56105920D01*
X96160971Y-56110755D01*
X96135646Y-56194241D01*
X96133966Y-56198936D01*
X96100579Y-56279537D01*
X96098448Y-56284043D01*
X96057323Y-56360984D01*
X96054760Y-56365260D01*
X96006290Y-56437800D01*
X96003320Y-56441804D01*
X95947975Y-56509243D01*
X95944627Y-56512937D01*
X95882937Y-56574627D01*
X95879243Y-56577975D01*
X95811804Y-56633320D01*
X95807800Y-56636290D01*
X95735260Y-56684760D01*
X95730984Y-56687323D01*
X95654043Y-56728448D01*
X95649537Y-56730579D01*
X95568936Y-56763966D01*
X95564241Y-56765646D01*
X95480755Y-56790971D01*
X95475920Y-56792182D01*
X95390354Y-56809202D01*
X95385422Y-56809933D01*
X95298600Y-56818484D01*
X95293621Y-56818729D01*
X95206379Y-56818729D01*
X95201400Y-56818484D01*
X95114578Y-56809933D01*
X95109646Y-56809202D01*
X95024080Y-56792182D01*
X95019245Y-56790971D01*
X94935759Y-56765646D01*
X94931064Y-56763966D01*
X94850463Y-56730579D01*
X94845957Y-56728448D01*
X94769016Y-56687323D01*
X94764740Y-56684760D01*
X94692200Y-56636290D01*
X94688196Y-56633320D01*
X94620757Y-56577975D01*
X94617063Y-56574627D01*
X94555373Y-56512937D01*
X94552025Y-56509243D01*
X94496680Y-56441804D01*
X94493710Y-56437800D01*
X94445240Y-56365260D01*
X94442677Y-56360984D01*
X94401552Y-56284043D01*
X94399421Y-56279537D01*
X94366034Y-56198936D01*
X94364354Y-56194241D01*
X94339029Y-56110755D01*
X94337818Y-56105920D01*
X94320798Y-56020354D01*
X94320067Y-56015422D01*
X94311516Y-55928600D01*
X94311271Y-55923621D01*
X94311271Y-55836379D01*
X94311516Y-55831400D01*
X94320067Y-55744578D01*
X94320798Y-55739646D01*
X94337818Y-55654080D01*
X94339029Y-55649245D01*
X94364354Y-55565759D01*
X94366034Y-55561064D01*
X94399421Y-55480463D01*
X94401552Y-55475957D01*
X94442677Y-55399016D01*
X94445240Y-55394740D01*
X94493710Y-55322200D01*
X94496680Y-55318196D01*
X94552025Y-55250757D01*
X94555373Y-55247063D01*
X94617063Y-55185373D01*
X94620757Y-55182025D01*
X94688196Y-55126680D01*
X94692200Y-55123710D01*
X94764740Y-55075240D01*
X94769016Y-55072677D01*
X94845957Y-55031552D01*
X94850463Y-55029421D01*
X94931064Y-54996034D01*
X94935759Y-54994354D01*
X95019245Y-54969029D01*
X95024080Y-54967818D01*
X95109646Y-54950798D01*
X95114578Y-54950067D01*
X95201400Y-54941516D01*
X95206379Y-54941271D01*
X95293621Y-54941271D01*
X95298600Y-54941516D01*
X95385422Y-54950067D01*
X95390354Y-54950798D01*
X95475920Y-54967818D01*
X95480755Y-54969029D01*
X95564241Y-54994354D01*
X95568936Y-54996034D01*
X95649537Y-55029421D01*
X95654043Y-55031552D01*
X95730984Y-55072677D01*
X95735260Y-55075240D01*
X95807800Y-55123710D01*
X95811804Y-55126680D01*
X95879243Y-55182025D01*
X95882937Y-55185373D01*
X95944627Y-55247063D01*
X95947975Y-55250757D01*
X96003320Y-55318196D01*
X96006290Y-55322200D01*
X96054760Y-55394740D01*
X96057323Y-55399016D01*
X96098448Y-55475957D01*
X96100579Y-55480463D01*
X96133966Y-55561064D01*
X96135646Y-55565759D01*
X96160971Y-55649245D01*
X96162182Y-55654080D01*
X96179202Y-55739646D01*
X96179933Y-55744578D01*
X96188484Y-55831400D01*
X96188729Y-55836379D01*
X96188729Y-55923621D01*
X96188484Y-55928600D01*
X96188484Y-55928600D01*
G37*
D11*
X96520000Y-63500000D03*
X96520000Y-60960000D03*
X96520000Y-58420000D03*
X96520000Y-55880000D03*
X96520000Y-66040000D03*
X96520000Y-68580000D03*
X96520000Y-73660000D03*
X96520000Y-71120000D03*
D14*
X85090000Y-54770000D03*
X85090000Y-74770000D03*
D15*
X77090000Y-64770000D03*
X93090000Y-64770000D03*
D16*
X85090000Y-54770000D03*
X85090000Y-74770000D03*
D17*
X81825000Y-73550000D03*
D18*
X81825000Y-76476400D03*
D19*
X80325000Y-77976400D03*
X83325000Y-77976400D03*
D20*
X79475000Y-71028000D03*
X79475000Y-69250000D03*
D21*
X82700000Y-72270000D03*
X82700000Y-71254000D03*
D22*
X91375000Y-57375000D03*
X91375000Y-59425000D03*
X89725000Y-59425000D03*
X89725000Y-57375000D03*
D23*
X91075000Y-57725000D03*
X91075000Y-59075000D03*
X90025000Y-59075000D03*
X90025000Y-57725000D03*
D24*
X83502000Y-59400000D03*
X83502000Y-61800000D03*
X85902000Y-59400000D03*
X85902000Y-61800000D03*
D25*
X83502000Y-59400000D03*
X83502000Y-61800000D03*
X85902000Y-59400000D03*
X85902000Y-61800000D03*
D26*
X86652000Y-63600000D03*
X86002000Y-63600000D03*
X85352000Y-63600000D03*
X84702000Y-63600000D03*
X84052000Y-63600000D03*
X83402000Y-63600000D03*
X82752000Y-63600000D03*
D27*
X81702000Y-62550000D03*
X81702000Y-61900000D03*
X81702000Y-61250000D03*
X81702000Y-60600000D03*
X81702000Y-59950000D03*
X81702000Y-59300000D03*
X81702000Y-58650000D03*
D26*
X82752000Y-57600000D03*
X83402000Y-57600000D03*
X84052000Y-57600000D03*
X84702000Y-57600000D03*
X85352000Y-57600000D03*
X86002000Y-57600000D03*
X86652000Y-57600000D03*
D27*
X87702000Y-58650000D03*
X87702000Y-59300000D03*
X87702000Y-59950000D03*
X87702000Y-60600000D03*
X87702000Y-61250000D03*
X87702000Y-61900000D03*
X87702000Y-62550000D03*
D21*
X82700000Y-70270000D03*
X82700000Y-69254000D03*
D28*
X80772000Y-65024000D03*
X79756000Y-65024000D03*
X84861400Y-67233800D03*
X83845400Y-67233800D03*
D21*
X84052000Y-66083000D03*
X84052000Y-65067000D03*
D28*
X82550000Y-66040000D03*
X81534000Y-66040000D03*
X80692000Y-72262000D03*
X81708000Y-72262000D03*
D21*
X83800000Y-71254000D03*
X83800000Y-72270000D03*
D28*
X84808000Y-70262000D03*
X83792000Y-70262000D03*
D21*
X82727800Y-67254000D03*
X82727800Y-68270000D03*
D28*
X86192000Y-67200000D03*
X87208000Y-67200000D03*
X86192000Y-66000000D03*
X87208000Y-66000000D03*
X81737200Y-56235600D03*
X82753200Y-56235600D03*
X91440000Y-61849000D03*
X90424000Y-61849000D03*
X91440000Y-64389000D03*
X90424000Y-64389000D03*
X91440000Y-63119000D03*
X90424000Y-63119000D03*
X91440000Y-60600000D03*
X90424000Y-60600000D03*
X90983000Y-56150000D03*
X89967000Y-56150000D03*
M02*
