M48
; DRILL file {KiCad 5.1.0-rc2-unknown-4612175~81~ubuntu18.04.1} date  8.03.2019 (пт)  9:47:54 EET
; FORMAT={-:-/ absolute / metric / decimal}
; #@! TF.CreationDate,2019-03-08T09:47:54+02:00
; #@! TF.GenerationSoftware,Kicad,Pcbnew,5.1.0-rc2-unknown-4612175~81~ubuntu18.04.1
; #@! TF.FileFunction,Plated,1,2,PTH
FMAT,2
METRIC
T1C0.400
T2C0.600
T3C1.000
%
G90
G05
T1
X78.121Y-73.363
X78.27Y-59.309
X78.27Y-61.976
X78.283Y-58.001
X78.295Y-60.592
X78.308Y-63.068
X78.332Y-65.06
X78.384Y-69.24
X79.121Y-73.363
X79.248Y-56.484
X79.248Y-57.484
X79.248Y-58.484
X79.248Y-66.04
X79.332Y-64.06
X80.121Y-73.363
X80.315Y-56.49
X81.737Y-57.594
X81.81Y-75.932
X84.163Y-55.856
X84.607Y-65.187
X84.632Y-73.36
X84.988Y-56.439
X85.141Y-66.192
X85.632Y-73.36
X86.632Y-73.36
X86.903Y-70.206
X86.954Y-71.463
X87.632Y-73.36
X87.681Y-55.77
X87.681Y-57.222
X87.903Y-70.206
X87.954Y-71.463
X88.632Y-73.36
X88.673Y-56.095
X88.709Y-57.924
X88.903Y-70.206
X88.954Y-71.463
X89.381Y-59.451
X89.446Y-65.786
X89.632Y-73.36
X89.789Y-63.119
X90.446Y-65.786
X90.632Y-73.36
X91.446Y-65.786
X91.632Y-73.36
X81.825Y-73.55
T2
X83.502Y-59.4
X83.502Y-61.8
X85.902Y-59.4
X85.902Y-61.8
T3
X95.25Y-55.88
X95.25Y-58.42
X95.25Y-60.96
X95.25Y-63.5
X95.25Y-66.04
X95.25Y-68.58
X95.25Y-71.12
X95.25Y-73.66
X96.52Y-55.88
X96.52Y-58.42
X96.52Y-60.96
X96.52Y-63.5
X96.52Y-66.04
X96.52Y-68.58
X96.52Y-71.12
X96.52Y-73.66
X73.66Y-55.88
X73.66Y-58.42
X73.66Y-60.96
X73.66Y-63.5
X73.66Y-66.04
X73.66Y-68.58
X73.66Y-71.12
X73.66Y-73.66
X74.93Y-55.88
X74.93Y-58.42
X74.93Y-60.96
X74.93Y-63.5
X74.93Y-66.04
X74.93Y-68.58
X74.93Y-71.12
X74.93Y-73.66
T2
G00X84.39Y-54.77
M15
G01X85.79Y-54.77
M16
G05
G00X84.39Y-74.77
M15
G01X85.79Y-74.77
M16
G05
T0
M30
